<svg xmlns="http://www.w3.org/2000/svg" xmlns:xlink="http://www.w3.org/1999/xlink"  zoomAndPan="magnify" viewBox="0 0 375 374.999991" preserveAspectRatio="xMidYMid meet" version="1.2"><defs/><g id="3271fca94e"><g style="fill:#ff914d;fill-opacity:1;"><g transform="translate(-7.372766, 246.264767)"><path style="stroke:none" d="M 32.046875 -55.90625 L 32.046875 0 L 11.5 0 L 11.5 -104.90625 L 16.953125 -104.90625 L 68.828125 -44.546875 L 68.828125 -102.609375 L 89.53125 -102.609375 L 89.53125 2.15625 L 84.0625 2.15625 Z M 32.046875 -55.90625 "/></g></g><g style="fill:#ff914d;fill-opacity:1;"><g transform="translate(93.793625, 246.264767)"><path style="stroke:none" d="M 2.296875 0 L 45.546875 -106.484375 L 47.703125 -106.484375 L 90.96875 0 L 67.828125 0 L 63.65625 -11.0625 L 29.609375 -11.0625 L 25.578125 0 Z M 37.078125 -30.328125 L 56.046875 -30.328125 L 46.703125 -57.046875 Z M 37.078125 -30.328125 "/></g></g><g style="fill:#ff914d;fill-opacity:1;"><g transform="translate(187.631197, 246.264767)"><path style="stroke:none" d="M 58.625 -59.203125 L 99.15625 -104.328125 L 105.625 -104.328125 L 105.625 0 L 84.78125 0 L 84.921875 -57.34375 L 58.625 -29.75 L 32.328125 -57.34375 L 32.328125 0 L 11.5 0 L 11.5 -104.328125 L 18.109375 -104.328125 Z M 58.625 -59.203125 "/></g></g><g style="fill:#ff914d;fill-opacity:1;"><g transform="translate(304.89223, 246.264767)"><path style="stroke:none" d="M 32.046875 0 L 11.5 0 L 11.5 -102.75 L 32.046875 -102.75 Z M 32.046875 0 "/></g></g><g style="fill:#ff914d;fill-opacity:1;"><g transform="translate(348.582289, 246.264767)"><path style="stroke:none" d=""/></g></g></g></svg>