<svg xmlns="http://www.w3.org/2000/svg" xmlns:xlink="http://www.w3.org/1999/xlink"  zoomAndPan="magnify" viewBox="0 0 380 410"  preserveAspectRatio="xMidYMid meet" version="1.2"><defs/><g id="a76eedc0c8"><g style="fill:#ff914d;fill-opacity:1;"><g transform="translate(6.221948, 237.357285)"><path style="stroke:none" d="M 30.515625 0 L 12.328125 0 L 12.328125 -94.90625 L 33.8125 -94.90625 L 71.921875 -33.75 L 73.609375 -34.015625 L 73.609375 -94.90625 L 91.65625 -94.90625 L 91.65625 0 L 72.4375 0 L 32.125 -65.296875 L 30.515625 -65.046875 Z M 30.515625 0 "/></g></g><g style="fill:#ff914d;fill-opacity:1;"><g transform="translate(110.275944, 237.357285)"><path style="stroke:none" d="M 91.0625 0 L 71.34375 0 L 64.203125 -21.875 L 27.84375 -21.875 L 20.703125 0 L 1.421875 0 L 34.203125 -94.90625 L 58.296875 -94.90625 Z M 45.109375 -75.109375 L 32.90625 -37.640625 L 59 -37.640625 L 46.734375 -75.109375 Z M 45.109375 -75.109375 "/></g></g><g style="fill:#ff914d;fill-opacity:1;"><g transform="translate(202.775599, 237.357285)"><path style="stroke:none" d="M 29.53125 0 L 12.328125 0 L 12.328125 -94.90625 L 36.875 -94.90625 L 60.890625 -25.125 L 62.25 -25.125 L 86.140625 -94.90625 L 110.09375 -94.90625 L 110.09375 0 L 92.296875 0 L 92.296875 -62.703125 L 90.6875 -62.96875 L 68.734375 0 L 53.09375 0 L 31.15625 -62.96875 L 29.53125 -62.703125 Z M 29.53125 0 "/></g></g><g style="fill:#ff914d;fill-opacity:1;"><g transform="translate(325.26461, 237.357285)"><path style="stroke:none" d="M 31.09375 0 L 12.328125 0 L 12.328125 -94.90625 L 31.09375 -94.90625 Z M 31.09375 0 "/></g></g><g style="fill:#00bf63;fill-opacity:1;"><g transform="translate(63.2567, 272.755983)"><path style="stroke:none" d="M 28.1875 -5.921875 C 28.21875 -5.648438 27.929688 -5.4375 27.328125 -5.28125 C 27.023438 -5.21875 26.703125 -5.164062 26.359375 -5.125 C 26.015625 -5.082031 25.703125 -5.0625 25.421875 -5.0625 C 24.859375 -5.0625 24.273438 -5.085938 23.671875 -5.140625 C 23.078125 -5.203125 22.46875 -5.265625 21.84375 -5.328125 C 21.726562 -3.734375 21.671875 -2.109375 21.671875 -0.453125 C 21.679688 1.203125 21.769531 2.828125 21.9375 4.421875 C 22.070312 5.585938 22.3125 6.523438 22.65625 7.234375 C 23 7.941406 23.382812 8.460938 23.8125 8.796875 C 24.238281 9.140625 24.625 9.363281 24.96875 9.46875 C 25.332031 9.539062 25.503906 9.613281 25.484375 9.6875 C 25.472656 9.769531 25.34375 9.816406 25.09375 9.828125 C 24.851562 9.847656 24.550781 9.820312 24.1875 9.75 C 23.914062 9.707031 23.578125 9.585938 23.171875 9.390625 C 22.773438 9.191406 22.363281 8.863281 21.9375 8.40625 C 21.507812 7.957031 21.125 7.34375 20.78125 6.5625 C 20.445312 5.78125 20.207031 4.78125 20.0625 3.5625 C 19.945312 2.632812 19.867188 1.382812 19.828125 -0.1875 C 19.785156 -1.769531 19.847656 -3.582031 20.015625 -5.625 C 18.804688 -5.8125 17.613281 -6.007812 16.4375 -6.21875 C 15.257812 -6.4375 14.15625 -6.585938 13.125 -6.671875 C 11.144531 -4.210938 9.453125 -2.195312 8.046875 -0.625 C 6.648438 0.945312 5.523438 2.15625 4.671875 3 C 3.828125 3.851562 3.242188 4.4375 2.921875 4.75 C 2.503906 5.132812 2.128906 5.28125 1.796875 5.1875 C 1.472656 5.09375 1.117188 4.921875 0.734375 4.671875 C 0.390625 4.421875 0.09375 4.160156 -0.15625 3.890625 C -0.414062 3.617188 -0.492188 3.410156 -0.390625 3.265625 C -0.328125 3.179688 -0.179688 3.164062 0.046875 3.21875 C 0.273438 3.28125 0.644531 3.242188 1.15625 3.109375 C 1.601562 2.992188 2.351562 2.53125 3.40625 1.71875 C 4.457031 0.914062 5.726562 -0.195312 7.21875 -1.625 C 8.71875 -3.0625 10.335938 -4.769531 12.078125 -6.75 L 11.515625 -6.75 C 10.617188 -6.75 9.898438 -6.734375 9.359375 -6.703125 C 8.816406 -6.679688 8.382812 -6.648438 8.0625 -6.609375 C 7.738281 -6.566406 7.460938 -6.503906 7.234375 -6.421875 C 6.859375 -6.285156 6.585938 -6.164062 6.421875 -6.0625 C 6.253906 -5.96875 6.082031 -5.921875 5.90625 -5.921875 C 5.789062 -5.921875 5.675781 -6.007812 5.5625 -6.1875 C 5.457031 -6.363281 5.394531 -6.5625 5.375 -6.78125 C 5.363281 -7 5.429688 -7.1875 5.578125 -7.34375 C 5.691406 -7.457031 5.925781 -7.550781 6.28125 -7.625 C 6.632812 -7.707031 7 -7.773438 7.375 -7.828125 C 7.757812 -7.890625 8.039062 -7.921875 8.21875 -7.921875 C 8.894531 -7.921875 9.609375 -7.875 10.359375 -7.78125 C 11.109375 -7.695312 11.894531 -7.585938 12.71875 -7.453125 C 14.300781 -9.265625 15.925781 -11.269531 17.59375 -13.46875 C 19.269531 -15.664062 20.921875 -18.023438 22.546875 -20.546875 C 22.847656 -21.015625 23.09375 -21.503906 23.28125 -22.015625 C 23.46875 -22.535156 23.585938 -23.019531 23.640625 -23.46875 C 23.660156 -23.757812 23.632812 -24.023438 23.5625 -24.265625 C 23.5 -24.460938 23.535156 -24.722656 23.671875 -25.046875 C 23.828125 -25.472656 23.992188 -25.945312 24.171875 -26.46875 C 24.347656 -26.988281 24.515625 -27.484375 24.671875 -27.953125 C 24.835938 -28.421875 24.992188 -28.800781 25.140625 -29.09375 C 25.296875 -29.394531 25.429688 -29.546875 25.546875 -29.546875 C 25.785156 -29.546875 26.015625 -29.445312 26.234375 -29.25 C 26.460938 -29.050781 26.578125 -28.828125 26.578125 -28.578125 C 26.578125 -28.460938 26.503906 -28.195312 26.359375 -27.78125 C 26.210938 -27.363281 26.039062 -26.890625 25.84375 -26.359375 C 25.644531 -25.828125 25.460938 -25.335938 25.296875 -24.890625 C 25.128906 -24.453125 25.019531 -24.132812 24.96875 -23.9375 C 24.957031 -23.820312 24.859375 -23.425781 24.671875 -22.75 C 24.492188 -22.070312 24.273438 -21.164062 24.015625 -20.03125 C 23.765625 -18.894531 23.503906 -17.585938 23.234375 -16.109375 C 22.960938 -14.628906 22.703125 -13.023438 22.453125 -11.296875 C 22.203125 -9.578125 22.015625 -7.785156 21.890625 -5.921875 C 22.515625 -5.859375 23.132812 -5.804688 23.75 -5.765625 C 24.363281 -5.722656 24.976562 -5.703125 25.59375 -5.703125 C 26.25 -5.703125 26.71875 -5.734375 27 -5.796875 C 27.28125 -5.867188 27.453125 -5.960938 27.515625 -6.078125 C 27.585938 -6.191406 27.628906 -6.3125 27.640625 -6.4375 C 27.660156 -6.5625 27.691406 -6.628906 27.734375 -6.640625 C 27.785156 -6.660156 27.867188 -6.578125 27.984375 -6.390625 C 28.097656 -6.203125 28.164062 -6.046875 28.1875 -5.921875 Z M 13.640625 -7.3125 C 14.660156 -7.144531 15.703125 -6.957031 16.765625 -6.75 C 17.835938 -6.550781 18.925781 -6.359375 20.03125 -6.171875 C 20.195312 -8.066406 20.46875 -10.101562 20.84375 -12.28125 C 21.226562 -14.46875 21.765625 -16.734375 22.453125 -19.078125 C 20.753906 -16.703125 19.164062 -14.535156 17.6875 -12.578125 C 16.21875 -10.628906 14.867188 -8.875 13.640625 -7.3125 Z M 13.640625 -7.3125 "/></g></g><g style="fill:#00bf63;fill-opacity:1;"><g transform="translate(89.087993, 272.755983)"><path style="stroke:none" d="M 17.828125 -22.734375 C 17.960938 -22.679688 18.078125 -22.5625 18.171875 -22.375 C 18.273438 -22.195312 18.347656 -22.007812 18.390625 -21.8125 C 18.429688 -21.613281 18.425781 -21.441406 18.375 -21.296875 C 18.332031 -21.160156 18.21875 -21.117188 18.03125 -21.171875 C 17.320312 -21.367188 16.5625 -21.46875 15.75 -21.46875 C 14.9375 -21.476562 14.109375 -21.425781 13.265625 -21.3125 C 12.671875 -20.175781 12.03125 -18.757812 11.34375 -17.0625 C 10.664062 -15.375 10 -13.445312 9.34375 -11.28125 C 8.695312 -9.125 8.117188 -6.773438 7.609375 -4.234375 C 7.097656 -1.703125 6.726562 0.957031 6.5 3.75 C 7.96875 3.625 9.367188 3.601562 10.703125 3.6875 C 12.035156 3.78125 13.1875 3.976562 14.15625 4.28125 C 14.320312 4.320312 14.457031 4.4375 14.5625 4.625 C 14.664062 4.820312 14.726562 5.019531 14.75 5.21875 C 14.78125 5.425781 14.753906 5.582031 14.671875 5.6875 C 14.585938 5.800781 14.445312 5.789062 14.25 5.65625 C 13.84375 5.394531 13.164062 5.144531 12.21875 4.90625 C 11.269531 4.664062 10.113281 4.546875 8.75 4.546875 C 8.4375 4.546875 8.082031 4.550781 7.6875 4.5625 C 7.289062 4.582031 6.867188 4.617188 6.421875 4.671875 L 6.34375 6.109375 C 6.3125 6.285156 6.207031 6.328125 6.03125 6.234375 C 5.863281 6.148438 5.679688 5.972656 5.484375 5.703125 C 5.285156 5.441406 5.113281 5.160156 4.96875 4.859375 C 3.726562 5.054688 2.445312 5.378906 1.125 5.828125 C -0.1875 6.273438 -1.378906 6.898438 -2.453125 7.703125 C -2.578125 7.804688 -2.695312 7.78125 -2.8125 7.625 C -2.925781 7.46875 -2.988281 7.273438 -3 7.046875 C -3.019531 6.828125 -2.96875 6.671875 -2.84375 6.578125 C -1.71875 5.910156 -0.507812 5.367188 0.78125 4.953125 C 2.082031 4.535156 3.394531 4.21875 4.71875 4 L 4.71875 3.90625 C 4.800781 2.320312 5.003906 0.648438 5.328125 -1.109375 C 5.648438 -2.867188 6.050781 -4.660156 6.53125 -6.484375 C 7.019531 -8.304688 7.546875 -10.085938 8.109375 -11.828125 C 8.679688 -13.578125 9.257812 -15.234375 9.84375 -16.796875 C 10.425781 -18.359375 10.984375 -19.765625 11.515625 -21.015625 C 10.535156 -20.804688 9.597656 -20.550781 8.703125 -20.25 C 7.804688 -19.957031 6.988281 -19.65625 6.25 -19.34375 C 5.519531 -19.03125 4.910156 -18.742188 4.421875 -18.484375 C 3.941406 -18.234375 3.628906 -18.035156 3.484375 -17.890625 C 3.253906 -17.671875 3.097656 -17.601562 3.015625 -17.6875 C 2.929688 -17.78125 2.894531 -17.953125 2.90625 -18.203125 C 2.925781 -18.453125 2.960938 -18.691406 3.015625 -18.921875 C 3.078125 -19.148438 3.132812 -19.289062 3.1875 -19.34375 C 3.476562 -19.550781 3.925781 -19.773438 4.53125 -20.015625 C 5.144531 -20.253906 5.851562 -20.492188 6.65625 -20.734375 C 7.46875 -20.972656 8.332031 -21.207031 9.25 -21.4375 C 10.164062 -21.664062 11.066406 -21.875 11.953125 -22.0625 C 12.492188 -23.332031 12.957031 -24.328125 13.34375 -25.046875 C 13.738281 -25.773438 13.976562 -26.144531 14.0625 -26.15625 C 14.375 -26.1875 14.691406 -26.097656 15.015625 -25.890625 C 15.347656 -25.691406 15.625 -25.457031 15.84375 -25.1875 C 16.070312 -24.925781 16.148438 -24.707031 16.078125 -24.53125 C 16.066406 -24.46875 15.96875 -24.441406 15.78125 -24.453125 C 15.601562 -24.472656 15.421875 -24.429688 15.234375 -24.328125 C 14.941406 -24.203125 14.484375 -23.570312 13.859375 -22.4375 C 14.828125 -22.59375 15.671875 -22.695312 16.390625 -22.75 C 17.109375 -22.8125 17.585938 -22.804688 17.828125 -22.734375 Z M 17.828125 -22.734375 "/></g></g><g style="fill:#00bf63;fill-opacity:1;"><g transform="translate(103.905178, 272.755983)"><path style="stroke:none" d=""/></g></g><g style="fill:#00bf63;fill-opacity:1;"><g transform="translate(113.783305, 272.755983)"><path style="stroke:none" d="M 34.0625 -25.640625 C 34.09375 -25.234375 34.035156 -24.90625 33.890625 -24.65625 C 33.742188 -24.40625 33.5625 -24.28125 33.34375 -24.28125 C 33.101562 -24.28125 32.929688 -24.34375 32.828125 -24.46875 C 32.734375 -24.601562 32.664062 -24.75 32.625 -24.90625 C 32.582031 -25.0625 32.492188 -25.175781 32.359375 -25.25 C 32.128906 -25.375 31.664062 -25.4375 30.96875 -25.4375 C 30.28125 -25.4375 29.414062 -25.382812 28.375 -25.28125 C 27.34375 -25.175781 26.195312 -25.03125 24.9375 -24.84375 C 23.675781 -24.664062 22.363281 -24.453125 21 -24.203125 C 19.644531 -23.960938 18.300781 -23.695312 16.96875 -23.40625 C 15.632812 -23.113281 14.375 -22.820312 13.1875 -22.53125 C 12.445312 -21.113281 11.671875 -19.578125 10.859375 -17.921875 C 10.054688 -16.265625 9.257812 -14.550781 8.46875 -12.78125 C 7.675781 -11.007812 6.910156 -9.226562 6.171875 -7.4375 C 7.210938 -7.726562 8.316406 -8.015625 9.484375 -8.296875 C 10.648438 -8.578125 11.820312 -8.832031 13 -9.0625 C 14.175781 -9.289062 15.304688 -9.46875 16.390625 -9.59375 C 17.472656 -9.71875 18.457031 -9.769531 19.34375 -9.75 C 19.519531 -9.75 19.65625 -9.617188 19.75 -9.359375 C 19.851562 -9.109375 19.910156 -8.816406 19.921875 -8.484375 C 19.941406 -8.160156 19.914062 -7.878906 19.84375 -7.640625 C 19.769531 -7.398438 19.648438 -7.300781 19.484375 -7.34375 C 19.171875 -7.40625 18.757812 -7.515625 18.25 -7.671875 C 17.738281 -7.828125 17.1875 -7.953125 16.59375 -8.046875 C 15.570312 -8.234375 14.4375 -8.242188 13.1875 -8.078125 C 11.9375 -7.910156 10.660156 -7.640625 9.359375 -7.265625 C 8.054688 -6.898438 6.804688 -6.488281 5.609375 -6.03125 C 4.796875 -3.988281 4.0625 -2.015625 3.40625 -0.109375 C 2.75 1.785156 2.222656 3.53125 1.828125 5.125 C 1.429688 6.726562 1.203125 8.097656 1.140625 9.234375 C 1.117188 9.648438 1.1875 10.015625 1.34375 10.328125 C 1.5 10.640625 1.578125 10.882812 1.578125 11.0625 C 1.578125 11.28125 1.46875 11.390625 1.25 11.390625 C 1.039062 11.398438 0.789062 11.335938 0.5 11.203125 C 0.21875 11.078125 -0.0234375 10.914062 -0.234375 10.71875 C -0.453125 10.519531 -0.5625 10.320312 -0.5625 10.125 C -0.5625 9.050781 -0.375 7.71875 0 6.125 C 0.375 4.53125 0.882812 2.753906 1.53125 0.796875 C 2.1875 -1.148438 2.921875 -3.171875 3.734375 -5.265625 C 3.066406 -4.960938 2.460938 -4.671875 1.921875 -4.390625 C 1.378906 -4.117188 0.90625 -3.863281 0.5 -3.625 C 0.34375 -3.550781 0.234375 -3.601562 0.171875 -3.78125 C 0.109375 -3.957031 0.078125 -4.1875 0.078125 -4.46875 C 0.0859375 -4.75 0.117188 -5.007812 0.171875 -5.25 C 0.222656 -5.488281 0.289062 -5.625 0.375 -5.65625 C 0.582031 -5.738281 1.046875 -5.898438 1.765625 -6.140625 C 2.484375 -6.378906 3.359375 -6.644531 4.390625 -6.9375 C 5.097656 -8.71875 5.832031 -10.488281 6.59375 -12.25 C 7.351562 -14.007812 8.097656 -15.707031 8.828125 -17.34375 C 9.566406 -18.988281 10.265625 -20.507812 10.921875 -21.90625 C 10.023438 -21.644531 9.253906 -21.394531 8.609375 -21.15625 C 7.960938 -20.914062 7.472656 -20.679688 7.140625 -20.453125 C 6.921875 -20.304688 6.757812 -20.296875 6.65625 -20.421875 C 6.550781 -20.546875 6.5 -20.722656 6.5 -20.953125 C 6.5 -21.179688 6.539062 -21.40625 6.625 -21.625 C 6.71875 -21.851562 6.847656 -21.988281 7.015625 -22.03125 L 11.578125 -23.3125 C 12.253906 -24.726562 12.851562 -25.984375 13.375 -27.078125 C 13.90625 -28.179688 14.316406 -29.066406 14.609375 -29.734375 C 14.910156 -30.410156 15.039062 -30.816406 15 -30.953125 C 14.96875 -31.097656 15.0625 -31.160156 15.28125 -31.140625 C 15.5 -31.128906 15.769531 -31.066406 16.09375 -30.953125 C 16.425781 -30.835938 16.75 -30.703125 17.0625 -30.546875 C 17.382812 -30.390625 17.625 -30.234375 17.78125 -30.078125 C 17.9375 -29.921875 17.945312 -29.800781 17.8125 -29.71875 C 17.695312 -29.65625 17.582031 -29.585938 17.46875 -29.515625 C 17.351562 -29.453125 17.253906 -29.367188 17.171875 -29.265625 C 16.753906 -28.722656 16.269531 -27.992188 15.71875 -27.078125 C 15.164062 -26.171875 14.570312 -25.125 13.9375 -23.9375 C 16.488281 -24.613281 19.238281 -25.21875 22.1875 -25.75 C 25.144531 -26.289062 28.296875 -26.640625 31.640625 -26.796875 C 32.492188 -26.847656 33.082031 -26.828125 33.40625 -26.734375 C 33.726562 -26.648438 33.914062 -26.515625 33.96875 -26.328125 C 34.019531 -26.148438 34.050781 -25.921875 34.0625 -25.640625 Z M 34.0625 -25.640625 "/></g></g><g style="fill:#00bf63;fill-opacity:1;"><g transform="translate(128.600489, 272.755983)"><path style="stroke:none" d="M 5.65625 -12.671875 C 5.59375 -12.535156 5.484375 -12.488281 5.328125 -12.53125 C 5.179688 -12.570312 5.046875 -12.65625 4.921875 -12.78125 C 4.804688 -12.90625 4.765625 -13.023438 4.796875 -13.140625 C 4.828125 -13.222656 4.867188 -13.394531 4.921875 -13.65625 C 4.984375 -13.925781 5.054688 -14.226562 5.140625 -14.5625 C 5.222656 -14.894531 5.300781 -15.207031 5.375 -15.5 C 5.445312 -15.789062 5.5 -16 5.53125 -16.125 C 5.5625 -16.257812 5.664062 -16.3125 5.84375 -16.28125 C 6.03125 -16.25 6.226562 -16.160156 6.4375 -16.015625 C 6.65625 -15.878906 6.828125 -15.726562 6.953125 -15.5625 C 7.085938 -15.394531 7.132812 -15.25 7.09375 -15.125 C 7.019531 -14.957031 6.878906 -14.703125 6.671875 -14.359375 C 6.472656 -14.023438 6.269531 -13.695312 6.0625 -13.375 C 5.851562 -13.050781 5.71875 -12.816406 5.65625 -12.671875 Z M 1.90625 1.796875 C 1.539062 1.796875 1.210938 1.695312 0.921875 1.5 C 0.640625 1.300781 0.5 0.925781 0.5 0.375 C 0.5 -0.21875 0.566406 -0.894531 0.703125 -1.65625 C 0.835938 -2.414062 1.003906 -3.171875 1.203125 -3.921875 C 1.398438 -4.679688 1.601562 -5.363281 1.8125 -5.96875 C 2.019531 -6.570312 2.191406 -6.992188 2.328125 -7.234375 C 2.390625 -7.347656 2.40625 -7.484375 2.375 -7.640625 C 2.351562 -7.710938 2.320312 -7.769531 2.28125 -7.8125 C 2.238281 -7.851562 2.242188 -7.925781 2.296875 -8.03125 C 2.578125 -8.570312 2.769531 -8.9375 2.875 -9.125 C 2.976562 -9.3125 3.070312 -9.414062 3.15625 -9.4375 C 3.289062 -9.46875 3.425781 -9.453125 3.5625 -9.390625 C 3.800781 -9.304688 4.046875 -9.15625 4.296875 -8.9375 C 4.546875 -8.726562 4.75 -8.515625 4.90625 -8.296875 C 5.0625 -8.085938 5.109375 -7.929688 5.046875 -7.828125 C 4.679688 -7.265625 4.300781 -6.609375 3.90625 -5.859375 C 3.519531 -5.117188 3.15625 -4.347656 2.8125 -3.546875 C 2.46875 -2.742188 2.175781 -1.992188 1.9375 -1.296875 C 1.695312 -0.597656 1.546875 -0.015625 1.484375 0.453125 C 1.429688 0.921875 1.5 1.195312 1.6875 1.28125 C 1.914062 1.382812 2.25 1.3125 2.6875 1.0625 C 3.132812 0.8125 3.65625 0.4375 4.25 -0.0625 C 4.851562 -0.5625 5.492188 -1.140625 6.171875 -1.796875 C 6.847656 -2.460938 7.523438 -3.160156 8.203125 -3.890625 C 8.878906 -4.617188 9.515625 -5.34375 10.109375 -6.0625 C 10.710938 -6.78125 11.238281 -7.4375 11.6875 -8.03125 C 11.882812 -8.289062 12.03125 -8.398438 12.125 -8.359375 C 12.226562 -8.316406 12.28125 -8.21875 12.28125 -8.0625 C 12.289062 -7.90625 12.25 -7.78125 12.15625 -7.6875 C 12.125 -7.632812 11.960938 -7.425781 11.671875 -7.0625 C 11.378906 -6.695312 11 -6.226562 10.53125 -5.65625 C 10.0625 -5.09375 9.53125 -4.476562 8.9375 -3.8125 C 8.34375 -3.144531 7.722656 -2.484375 7.078125 -1.828125 C 6.441406 -1.171875 5.804688 -0.566406 5.171875 -0.015625 C 4.535156 0.535156 3.9375 0.972656 3.375 1.296875 C 2.820312 1.628906 2.332031 1.796875 1.90625 1.796875 Z M 1.90625 1.796875 "/></g></g><g style="fill:#00bf63;fill-opacity:1;"><g transform="translate(137.589581, 272.755983)"><path style="stroke:none" d="M 0.6875 3.03125 C 0.601562 3.101562 0.445312 3.101562 0.21875 3.03125 C -0.0078125 2.96875 -0.21875 2.84375 -0.40625 2.65625 C -0.59375 2.46875 -0.679688 2.21875 -0.671875 1.90625 C -0.617188 1.28125 -0.460938 0.460938 -0.203125 -0.546875 C 0.046875 -1.566406 0.375 -2.6875 0.78125 -3.90625 C 1.1875 -5.125 1.617188 -6.332031 2.078125 -7.53125 C 2.128906 -7.644531 2.128906 -7.757812 2.078125 -7.875 L 2.046875 -7.921875 C 1.984375 -8.054688 1.976562 -8.179688 2.03125 -8.296875 C 2.144531 -8.523438 2.28125 -8.800781 2.4375 -9.125 C 2.601562 -9.445312 2.769531 -9.734375 2.9375 -9.984375 C 3.101562 -10.242188 3.234375 -10.390625 3.328125 -10.421875 C 3.453125 -10.453125 3.613281 -10.414062 3.8125 -10.3125 C 4.019531 -10.21875 4.207031 -10.082031 4.375 -9.90625 C 4.539062 -9.738281 4.613281 -9.550781 4.59375 -9.34375 C 4.570312 -9.1875 4.421875 -8.796875 4.140625 -8.171875 C 3.867188 -7.546875 3.535156 -6.757812 3.140625 -5.8125 C 2.742188 -4.863281 2.359375 -3.828125 1.984375 -2.703125 C 1.617188 -1.585938 1.335938 -0.457031 1.140625 0.6875 C 1.109375 0.875 1.203125 0.816406 1.421875 0.515625 C 1.640625 0.222656 1.953125 -0.222656 2.359375 -0.828125 C 2.765625 -1.441406 3.238281 -2.132812 3.78125 -2.90625 C 4.320312 -3.6875 4.90625 -4.476562 5.53125 -5.28125 C 6.15625 -6.09375 6.789062 -6.835938 7.4375 -7.515625 C 8.09375 -8.203125 8.734375 -8.753906 9.359375 -9.171875 C 9.984375 -9.597656 10.5625 -9.8125 11.09375 -9.8125 C 11.414062 -9.8125 11.6875 -9.6875 11.90625 -9.4375 C 12.132812 -9.1875 12.25 -8.800781 12.25 -8.28125 C 12.25 -8 12.175781 -7.582031 12.03125 -7.03125 C 11.894531 -6.488281 11.722656 -5.882812 11.515625 -5.21875 C 11.316406 -4.550781 11.109375 -3.875 10.890625 -3.1875 C 10.679688 -2.507812 10.492188 -1.875 10.328125 -1.28125 C 10.160156 -0.6875 10.046875 -0.195312 9.984375 0.1875 C 9.929688 0.570312 9.960938 0.796875 10.078125 0.859375 C 10.242188 0.960938 10.515625 0.894531 10.890625 0.65625 C 11.273438 0.414062 11.722656 0.0703125 12.234375 -0.375 C 12.742188 -0.832031 13.285156 -1.347656 13.859375 -1.921875 C 14.429688 -2.503906 15 -3.09375 15.5625 -3.6875 C 16.125 -4.289062 16.640625 -4.851562 17.109375 -5.375 C 17.578125 -5.90625 17.96875 -6.347656 18.28125 -6.703125 C 18.59375 -7.054688 18.78125 -7.269531 18.84375 -7.34375 C 19.070312 -7.582031 19.234375 -7.628906 19.328125 -7.484375 C 19.429688 -7.347656 19.421875 -7.191406 19.296875 -7.015625 C 19.242188 -6.953125 19.039062 -6.695312 18.6875 -6.25 C 18.332031 -5.800781 17.878906 -5.25 17.328125 -4.59375 C 16.773438 -3.9375 16.171875 -3.242188 15.515625 -2.515625 C 14.859375 -1.796875 14.195312 -1.117188 13.53125 -0.484375 C 12.875 0.148438 12.257812 0.671875 11.6875 1.078125 C 11.125 1.484375 10.660156 1.6875 10.296875 1.6875 C 9.898438 1.6875 9.570312 1.585938 9.3125 1.390625 C 9.050781 1.203125 8.859375 0.992188 8.734375 0.765625 C 8.609375 0.535156 8.546875 0.347656 8.546875 0.203125 C 8.546875 -0.460938 8.644531 -1.195312 8.84375 -2 C 9.039062 -2.8125 9.273438 -3.613281 9.546875 -4.40625 C 9.816406 -5.207031 10.078125 -5.953125 10.328125 -6.640625 C 10.578125 -7.335938 10.757812 -7.910156 10.875 -8.359375 C 11 -8.816406 11.003906 -9.085938 10.890625 -9.171875 C 10.660156 -9.347656 10.289062 -9.257812 9.78125 -8.90625 C 9.269531 -8.550781 8.660156 -7.984375 7.953125 -7.203125 C 7.242188 -6.429688 6.484375 -5.507812 5.671875 -4.4375 C 4.859375 -3.375 4.023438 -2.203125 3.171875 -0.921875 C 2.328125 0.347656 1.5 1.664062 0.6875 3.03125 Z M 0.6875 3.03125 "/></g></g><g style="fill:#00bf63;fill-opacity:1;"><g transform="translate(153.863791, 272.755983)"><path style="stroke:none" d="M 8.96875 3.359375 C 8.539062 3.359375 8.148438 3.234375 7.796875 2.984375 C 7.453125 2.742188 7.175781 2.445312 6.96875 2.09375 C 6.769531 1.738281 6.671875 1.410156 6.671875 1.109375 C 6.671875 0.585938 6.757812 -0.0351562 6.9375 -0.765625 C 7.125 -1.503906 7.351562 -2.289062 7.625 -3.125 C 7.894531 -3.957031 8.175781 -4.789062 8.46875 -5.625 C 8.769531 -6.46875 9.035156 -7.269531 9.265625 -8.03125 C 8.753906 -7.570312 8.203125 -7 7.609375 -6.3125 C 7.015625 -5.625 6.40625 -4.910156 5.78125 -4.171875 C 5.164062 -3.429688 4.570312 -2.742188 4 -2.109375 C 3.425781 -1.472656 2.890625 -0.953125 2.390625 -0.546875 C 1.898438 -0.148438 1.488281 0.046875 1.15625 0.046875 C 0.988281 0.046875 0.800781 -0.0234375 0.59375 -0.171875 C 0.394531 -0.316406 0.21875 -0.515625 0.0625 -0.765625 C -0.09375 -1.023438 -0.171875 -1.296875 -0.171875 -1.578125 C -0.171875 -1.921875 -0.078125 -2.414062 0.109375 -3.0625 C 0.296875 -3.707031 0.554688 -4.40625 0.890625 -5.15625 C 1.222656 -5.90625 1.597656 -6.625 2.015625 -7.3125 C 2.429688 -8 2.867188 -8.5625 3.328125 -9 C 3.796875 -9.4375 4.257812 -9.65625 4.71875 -9.65625 C 5.289062 -9.65625 5.800781 -9.523438 6.25 -9.265625 C 6.695312 -9.003906 7.039062 -8.71875 7.28125 -8.40625 C 7.519531 -8.101562 7.601562 -7.90625 7.53125 -7.8125 C 7.4375 -7.675781 7.3125 -7.65625 7.15625 -7.75 C 7.007812 -7.851562 6.84375 -7.984375 6.65625 -8.140625 C 6.476562 -8.296875 6.300781 -8.375 6.125 -8.375 C 5.863281 -8.375 5.523438 -8.21875 5.109375 -7.90625 C 4.703125 -7.59375 4.269531 -7.175781 3.8125 -6.65625 C 3.363281 -6.132812 2.941406 -5.554688 2.546875 -4.921875 C 2.148438 -4.296875 1.828125 -3.664062 1.578125 -3.03125 C 1.328125 -2.394531 1.203125 -1.8125 1.203125 -1.28125 C 1.203125 -1.15625 1.238281 -1.070312 1.3125 -1.03125 C 1.394531 -1 1.453125 -0.984375 1.484375 -0.984375 C 1.679688 -0.984375 1.957031 -1.128906 2.3125 -1.421875 C 2.675781 -1.710938 3.085938 -2.09375 3.546875 -2.5625 C 4.015625 -3.039062 4.488281 -3.554688 4.96875 -4.109375 C 5.457031 -4.660156 5.925781 -5.195312 6.375 -5.71875 C 6.820312 -6.25 7.210938 -6.71875 7.546875 -7.125 C 7.878906 -7.539062 8.113281 -7.84375 8.25 -8.03125 C 8.675781 -8.550781 8.992188 -8.921875 9.203125 -9.140625 C 9.421875 -9.367188 9.613281 -9.484375 9.78125 -9.484375 C 9.957031 -9.484375 10.179688 -9.378906 10.453125 -9.171875 C 10.734375 -8.972656 10.875 -8.707031 10.875 -8.375 C 10.875 -8.226562 10.804688 -7.914062 10.671875 -7.4375 C 10.535156 -6.957031 10.359375 -6.378906 10.140625 -5.703125 C 9.929688 -5.023438 9.707031 -4.300781 9.46875 -3.53125 C 9.226562 -2.769531 9 -2.019531 8.78125 -1.28125 C 8.570312 -0.539062 8.398438 0.117188 8.265625 0.703125 C 8.140625 1.285156 8.078125 1.742188 8.078125 2.078125 C 8.078125 2.285156 8.140625 2.421875 8.265625 2.484375 C 8.390625 2.554688 8.484375 2.59375 8.546875 2.59375 C 8.828125 2.59375 9.234375 2.378906 9.765625 1.953125 C 10.304688 1.535156 10.910156 0.988281 11.578125 0.3125 C 12.242188 -0.351562 12.929688 -1.078125 13.640625 -1.859375 C 14.347656 -2.640625 15.019531 -3.398438 15.65625 -4.140625 C 16.300781 -4.890625 16.863281 -5.539062 17.34375 -6.09375 C 17.832031 -6.644531 18.1875 -7.019531 18.40625 -7.21875 C 18.582031 -7.375 18.695312 -7.375 18.75 -7.21875 C 18.8125 -7.0625 18.800781 -6.9375 18.71875 -6.84375 C 18.707031 -6.8125 18.53125 -6.597656 18.1875 -6.203125 C 17.851562 -5.804688 17.421875 -5.296875 16.890625 -4.671875 C 16.367188 -4.054688 15.789062 -3.378906 15.15625 -2.640625 C 14.519531 -1.898438 13.878906 -1.164062 13.234375 -0.4375 C 12.640625 0.21875 12.078125 0.835938 11.546875 1.421875 C 11.015625 2.003906 10.523438 2.472656 10.078125 2.828125 C 9.628906 3.179688 9.257812 3.359375 8.96875 3.359375 Z M 8.96875 3.359375 "/></g></g><g style="fill:#00bf63;fill-opacity:1;"><g transform="translate(169.125493, 272.755983)"><path style="stroke:none" d="M 0.6875 3.03125 C 0.601562 3.101562 0.445312 3.101562 0.21875 3.03125 C -0.0078125 2.96875 -0.21875 2.84375 -0.40625 2.65625 C -0.59375 2.46875 -0.679688 2.21875 -0.671875 1.90625 C -0.617188 1.28125 -0.460938 0.460938 -0.203125 -0.546875 C 0.046875 -1.566406 0.375 -2.6875 0.78125 -3.90625 C 1.1875 -5.125 1.617188 -6.332031 2.078125 -7.53125 C 2.128906 -7.644531 2.128906 -7.757812 2.078125 -7.875 L 2.046875 -7.921875 C 1.984375 -8.054688 1.976562 -8.179688 2.03125 -8.296875 C 2.144531 -8.523438 2.28125 -8.800781 2.4375 -9.125 C 2.601562 -9.445312 2.769531 -9.734375 2.9375 -9.984375 C 3.101562 -10.242188 3.234375 -10.390625 3.328125 -10.421875 C 3.453125 -10.453125 3.613281 -10.414062 3.8125 -10.3125 C 4.019531 -10.21875 4.207031 -10.082031 4.375 -9.90625 C 4.539062 -9.738281 4.613281 -9.550781 4.59375 -9.34375 C 4.570312 -9.1875 4.421875 -8.796875 4.140625 -8.171875 C 3.867188 -7.546875 3.535156 -6.757812 3.140625 -5.8125 C 2.742188 -4.863281 2.359375 -3.828125 1.984375 -2.703125 C 1.617188 -1.585938 1.335938 -0.457031 1.140625 0.6875 C 1.109375 0.875 1.203125 0.816406 1.421875 0.515625 C 1.640625 0.222656 1.953125 -0.222656 2.359375 -0.828125 C 2.765625 -1.441406 3.238281 -2.132812 3.78125 -2.90625 C 4.320312 -3.6875 4.90625 -4.476562 5.53125 -5.28125 C 6.15625 -6.09375 6.789062 -6.835938 7.4375 -7.515625 C 8.09375 -8.203125 8.734375 -8.753906 9.359375 -9.171875 C 9.984375 -9.597656 10.5625 -9.8125 11.09375 -9.8125 C 11.414062 -9.8125 11.6875 -9.6875 11.90625 -9.4375 C 12.132812 -9.1875 12.25 -8.800781 12.25 -8.28125 C 12.25 -8 12.175781 -7.582031 12.03125 -7.03125 C 11.894531 -6.488281 11.722656 -5.882812 11.515625 -5.21875 C 11.316406 -4.550781 11.109375 -3.875 10.890625 -3.1875 C 10.679688 -2.507812 10.492188 -1.875 10.328125 -1.28125 C 10.160156 -0.6875 10.046875 -0.195312 9.984375 0.1875 C 9.929688 0.570312 9.960938 0.796875 10.078125 0.859375 C 10.242188 0.960938 10.515625 0.894531 10.890625 0.65625 C 11.273438 0.414062 11.722656 0.0703125 12.234375 -0.375 C 12.742188 -0.832031 13.285156 -1.347656 13.859375 -1.921875 C 14.429688 -2.503906 15 -3.09375 15.5625 -3.6875 C 16.125 -4.289062 16.640625 -4.851562 17.109375 -5.375 C 17.578125 -5.90625 17.96875 -6.347656 18.28125 -6.703125 C 18.59375 -7.054688 18.78125 -7.269531 18.84375 -7.34375 C 19.070312 -7.582031 19.234375 -7.628906 19.328125 -7.484375 C 19.429688 -7.347656 19.421875 -7.191406 19.296875 -7.015625 C 19.242188 -6.953125 19.039062 -6.695312 18.6875 -6.25 C 18.332031 -5.800781 17.878906 -5.25 17.328125 -4.59375 C 16.773438 -3.9375 16.171875 -3.242188 15.515625 -2.515625 C 14.859375 -1.796875 14.195312 -1.117188 13.53125 -0.484375 C 12.875 0.148438 12.257812 0.671875 11.6875 1.078125 C 11.125 1.484375 10.660156 1.6875 10.296875 1.6875 C 9.898438 1.6875 9.570312 1.585938 9.3125 1.390625 C 9.050781 1.203125 8.859375 0.992188 8.734375 0.765625 C 8.609375 0.535156 8.546875 0.347656 8.546875 0.203125 C 8.546875 -0.460938 8.644531 -1.195312 8.84375 -2 C 9.039062 -2.8125 9.273438 -3.613281 9.546875 -4.40625 C 9.816406 -5.207031 10.078125 -5.953125 10.328125 -6.640625 C 10.578125 -7.335938 10.757812 -7.910156 10.875 -8.359375 C 11 -8.816406 11.003906 -9.085938 10.890625 -9.171875 C 10.660156 -9.347656 10.289062 -9.257812 9.78125 -8.90625 C 9.269531 -8.550781 8.660156 -7.984375 7.953125 -7.203125 C 7.242188 -6.429688 6.484375 -5.507812 5.671875 -4.4375 C 4.859375 -3.375 4.023438 -2.203125 3.171875 -0.921875 C 2.328125 0.347656 1.5 1.664062 0.6875 3.03125 Z M 0.6875 3.03125 "/></g></g><g style="fill:#00bf63;fill-opacity:1;"><g transform="translate(185.399703, 272.755983)"><path style="stroke:none" d="M 2.03125 2.734375 C 1.644531 2.734375 1.285156 2.597656 0.953125 2.328125 C 0.628906 2.054688 0.363281 1.707031 0.15625 1.28125 C -0.0390625 0.851562 -0.140625 0.425781 -0.140625 0 C -0.140625 -0.882812 -0.0234375 -1.78125 0.203125 -2.6875 C 0.441406 -3.59375 0.757812 -4.453125 1.15625 -5.265625 C 1.550781 -6.085938 1.984375 -6.820312 2.453125 -7.46875 C 2.921875 -8.125 3.378906 -8.632812 3.828125 -9 C 4.285156 -9.375 4.695312 -9.5625 5.0625 -9.5625 C 5.65625 -9.5625 6.175781 -9.425781 6.625 -9.15625 C 7.082031 -8.882812 7.429688 -8.597656 7.671875 -8.296875 C 7.921875 -8.003906 8.015625 -7.804688 7.953125 -7.703125 C 7.898438 -7.617188 7.78125 -7.628906 7.59375 -7.734375 C 7.40625 -7.847656 7.1875 -7.972656 6.9375 -8.109375 C 6.695312 -8.253906 6.453125 -8.328125 6.203125 -8.328125 C 5.804688 -8.328125 5.378906 -8.113281 4.921875 -7.6875 C 4.472656 -7.257812 4.03125 -6.691406 3.59375 -5.984375 C 3.15625 -5.273438 2.765625 -4.5 2.421875 -3.65625 C 2.078125 -2.8125 1.796875 -1.96875 1.578125 -1.125 C 1.367188 -0.289062 1.265625 0.46875 1.265625 1.15625 C 1.265625 1.519531 1.300781 1.765625 1.375 1.890625 C 1.445312 2.015625 1.550781 2.078125 1.6875 2.078125 C 2.007812 2.078125 2.457031 1.894531 3.03125 1.53125 C 3.613281 1.164062 4.265625 0.679688 4.984375 0.078125 C 5.710938 -0.515625 6.46875 -1.171875 7.25 -1.890625 C 8.03125 -2.617188 8.796875 -3.347656 9.546875 -4.078125 C 10.296875 -4.816406 10.976562 -5.503906 11.59375 -6.140625 C 12.21875 -6.773438 12.722656 -7.296875 13.109375 -7.703125 C 13.492188 -8.117188 13.71875 -8.359375 13.78125 -8.421875 C 13.851562 -8.453125 13.957031 -8.425781 14.09375 -8.34375 C 14.226562 -8.257812 14.253906 -8.171875 14.171875 -8.078125 C 13.703125 -7.535156 13.113281 -6.894531 12.40625 -6.15625 C 11.695312 -5.414062 10.929688 -4.640625 10.109375 -3.828125 C 9.296875 -3.023438 8.476562 -2.226562 7.65625 -1.4375 C 6.832031 -0.65625 6.046875 0.046875 5.296875 0.671875 C 4.546875 1.296875 3.882812 1.796875 3.3125 2.171875 C 2.738281 2.546875 2.3125 2.734375 2.03125 2.734375 Z M 2.03125 2.734375 "/></g></g><g style="fill:#00bf63;fill-opacity:1;"><g transform="translate(196.117463, 272.755983)"><path style="stroke:none" d="M 13.859375 -7.4375 C 14.003906 -7.613281 14.125 -7.664062 14.21875 -7.59375 C 14.320312 -7.519531 14.378906 -7.394531 14.390625 -7.21875 C 14.410156 -7.050781 14.347656 -6.894531 14.203125 -6.75 C 13.953125 -6.476562 13.578125 -6.082031 13.078125 -5.5625 C 12.585938 -5.050781 12.019531 -4.460938 11.375 -3.796875 C 10.726562 -3.140625 10.046875 -2.472656 9.328125 -1.796875 C 8.609375 -1.128906 7.894531 -0.515625 7.1875 0.046875 C 6.476562 0.617188 5.820312 1.082031 5.21875 1.4375 C 4.625 1.789062 4.113281 1.96875 3.6875 1.96875 C 2.738281 1.96875 1.957031 1.679688 1.34375 1.109375 C 0.726562 0.546875 0.421875 -0.304688 0.421875 -1.453125 C 0.421875 -2.191406 0.539062 -2.957031 0.78125 -3.75 C 1.019531 -4.539062 1.335938 -5.300781 1.734375 -6.03125 C 2.140625 -6.769531 2.597656 -7.4375 3.109375 -8.03125 C 3.617188 -8.625 4.15625 -9.09375 4.71875 -9.4375 C 5.28125 -9.78125 5.832031 -9.953125 6.375 -9.953125 C 6.96875 -9.953125 7.421875 -9.816406 7.734375 -9.546875 C 8.046875 -9.273438 8.203125 -8.914062 8.203125 -8.46875 C 8.203125 -8.09375 8.066406 -7.671875 7.796875 -7.203125 C 7.535156 -6.742188 7.203125 -6.351562 6.796875 -6.03125 C 6.398438 -5.71875 5.972656 -5.5625 5.515625 -5.5625 C 5.097656 -5.5625 4.773438 -5.660156 4.546875 -5.859375 C 4.316406 -6.066406 4.101562 -6.296875 3.90625 -6.546875 C 3.34375 -5.703125 2.859375 -4.738281 2.453125 -3.65625 C 2.054688 -2.582031 1.859375 -1.507812 1.859375 -0.4375 C 1.859375 0.113281 1.988281 0.5625 2.25 0.90625 C 2.507812 1.257812 2.894531 1.4375 3.40625 1.4375 C 3.851562 1.414062 4.40625 1.207031 5.0625 0.8125 C 5.71875 0.414062 6.421875 -0.09375 7.171875 -0.71875 C 7.921875 -1.34375 8.664062 -2.015625 9.40625 -2.734375 C 10.15625 -3.460938 10.84375 -4.160156 11.46875 -4.828125 C 12.101562 -5.492188 12.632812 -6.066406 13.0625 -6.546875 C 13.488281 -7.023438 13.753906 -7.320312 13.859375 -7.4375 Z M 7.109375 -9.234375 C 6.703125 -9.234375 6.222656 -9.007812 5.671875 -8.5625 C 5.128906 -8.125 4.597656 -7.539062 4.078125 -6.8125 C 4.210938 -6.65625 4.363281 -6.523438 4.53125 -6.421875 C 4.707031 -6.328125 4.867188 -6.28125 5.015625 -6.28125 C 5.222656 -6.28125 5.515625 -6.394531 5.890625 -6.625 C 6.273438 -6.863281 6.625 -7.1875 6.9375 -7.59375 C 7.25 -8 7.40625 -8.441406 7.40625 -8.921875 C 7.40625 -9.128906 7.304688 -9.234375 7.109375 -9.234375 Z M 7.109375 -9.234375 "/></g></g><g style="fill:#00bf63;fill-opacity:1;"><g transform="translate(207.353825, 272.755983)"><path style="stroke:none" d=""/></g></g><g style="fill:#00bf63;fill-opacity:1;"><g transform="translate(217.231952, 272.755983)"><path style="stroke:none" d="M 28.1875 -5.921875 C 28.21875 -5.648438 27.929688 -5.4375 27.328125 -5.28125 C 27.023438 -5.21875 26.703125 -5.164062 26.359375 -5.125 C 26.015625 -5.082031 25.703125 -5.0625 25.421875 -5.0625 C 24.859375 -5.0625 24.273438 -5.085938 23.671875 -5.140625 C 23.078125 -5.203125 22.46875 -5.265625 21.84375 -5.328125 C 21.726562 -3.734375 21.671875 -2.109375 21.671875 -0.453125 C 21.679688 1.203125 21.769531 2.828125 21.9375 4.421875 C 22.070312 5.585938 22.3125 6.523438 22.65625 7.234375 C 23 7.941406 23.382812 8.460938 23.8125 8.796875 C 24.238281 9.140625 24.625 9.363281 24.96875 9.46875 C 25.332031 9.539062 25.503906 9.613281 25.484375 9.6875 C 25.472656 9.769531 25.34375 9.816406 25.09375 9.828125 C 24.851562 9.847656 24.550781 9.820312 24.1875 9.75 C 23.914062 9.707031 23.578125 9.585938 23.171875 9.390625 C 22.773438 9.191406 22.363281 8.863281 21.9375 8.40625 C 21.507812 7.957031 21.125 7.34375 20.78125 6.5625 C 20.445312 5.78125 20.207031 4.78125 20.0625 3.5625 C 19.945312 2.632812 19.867188 1.382812 19.828125 -0.1875 C 19.785156 -1.769531 19.847656 -3.582031 20.015625 -5.625 C 18.804688 -5.8125 17.613281 -6.007812 16.4375 -6.21875 C 15.257812 -6.4375 14.15625 -6.585938 13.125 -6.671875 C 11.144531 -4.210938 9.453125 -2.195312 8.046875 -0.625 C 6.648438 0.945312 5.523438 2.15625 4.671875 3 C 3.828125 3.851562 3.242188 4.4375 2.921875 4.75 C 2.503906 5.132812 2.128906 5.28125 1.796875 5.1875 C 1.472656 5.09375 1.117188 4.921875 0.734375 4.671875 C 0.390625 4.421875 0.09375 4.160156 -0.15625 3.890625 C -0.414062 3.617188 -0.492188 3.410156 -0.390625 3.265625 C -0.328125 3.179688 -0.179688 3.164062 0.046875 3.21875 C 0.273438 3.28125 0.644531 3.242188 1.15625 3.109375 C 1.601562 2.992188 2.351562 2.53125 3.40625 1.71875 C 4.457031 0.914062 5.726562 -0.195312 7.21875 -1.625 C 8.71875 -3.0625 10.335938 -4.769531 12.078125 -6.75 L 11.515625 -6.75 C 10.617188 -6.75 9.898438 -6.734375 9.359375 -6.703125 C 8.816406 -6.679688 8.382812 -6.648438 8.0625 -6.609375 C 7.738281 -6.566406 7.460938 -6.503906 7.234375 -6.421875 C 6.859375 -6.285156 6.585938 -6.164062 6.421875 -6.0625 C 6.253906 -5.96875 6.082031 -5.921875 5.90625 -5.921875 C 5.789062 -5.921875 5.675781 -6.007812 5.5625 -6.1875 C 5.457031 -6.363281 5.394531 -6.5625 5.375 -6.78125 C 5.363281 -7 5.429688 -7.1875 5.578125 -7.34375 C 5.691406 -7.457031 5.925781 -7.550781 6.28125 -7.625 C 6.632812 -7.707031 7 -7.773438 7.375 -7.828125 C 7.757812 -7.890625 8.039062 -7.921875 8.21875 -7.921875 C 8.894531 -7.921875 9.609375 -7.875 10.359375 -7.78125 C 11.109375 -7.695312 11.894531 -7.585938 12.71875 -7.453125 C 14.300781 -9.265625 15.925781 -11.269531 17.59375 -13.46875 C 19.269531 -15.664062 20.921875 -18.023438 22.546875 -20.546875 C 22.847656 -21.015625 23.09375 -21.503906 23.28125 -22.015625 C 23.46875 -22.535156 23.585938 -23.019531 23.640625 -23.46875 C 23.660156 -23.757812 23.632812 -24.023438 23.5625 -24.265625 C 23.5 -24.460938 23.535156 -24.722656 23.671875 -25.046875 C 23.828125 -25.472656 23.992188 -25.945312 24.171875 -26.46875 C 24.347656 -26.988281 24.515625 -27.484375 24.671875 -27.953125 C 24.835938 -28.421875 24.992188 -28.800781 25.140625 -29.09375 C 25.296875 -29.394531 25.429688 -29.546875 25.546875 -29.546875 C 25.785156 -29.546875 26.015625 -29.445312 26.234375 -29.25 C 26.460938 -29.050781 26.578125 -28.828125 26.578125 -28.578125 C 26.578125 -28.460938 26.503906 -28.195312 26.359375 -27.78125 C 26.210938 -27.363281 26.039062 -26.890625 25.84375 -26.359375 C 25.644531 -25.828125 25.460938 -25.335938 25.296875 -24.890625 C 25.128906 -24.453125 25.019531 -24.132812 24.96875 -23.9375 C 24.957031 -23.820312 24.859375 -23.425781 24.671875 -22.75 C 24.492188 -22.070312 24.273438 -21.164062 24.015625 -20.03125 C 23.765625 -18.894531 23.503906 -17.585938 23.234375 -16.109375 C 22.960938 -14.628906 22.703125 -13.023438 22.453125 -11.296875 C 22.203125 -9.578125 22.015625 -7.785156 21.890625 -5.921875 C 22.515625 -5.859375 23.132812 -5.804688 23.75 -5.765625 C 24.363281 -5.722656 24.976562 -5.703125 25.59375 -5.703125 C 26.25 -5.703125 26.71875 -5.734375 27 -5.796875 C 27.28125 -5.867188 27.453125 -5.960938 27.515625 -6.078125 C 27.585938 -6.191406 27.628906 -6.3125 27.640625 -6.4375 C 27.660156 -6.5625 27.691406 -6.628906 27.734375 -6.640625 C 27.785156 -6.660156 27.867188 -6.578125 27.984375 -6.390625 C 28.097656 -6.203125 28.164062 -6.046875 28.1875 -5.921875 Z M 13.640625 -7.3125 C 14.660156 -7.144531 15.703125 -6.957031 16.765625 -6.75 C 17.835938 -6.550781 18.925781 -6.359375 20.03125 -6.171875 C 20.195312 -8.066406 20.46875 -10.101562 20.84375 -12.28125 C 21.226562 -14.46875 21.765625 -16.734375 22.453125 -19.078125 C 20.753906 -16.703125 19.164062 -14.535156 17.6875 -12.578125 C 16.21875 -10.628906 14.867188 -8.875 13.640625 -7.3125 Z M 13.640625 -7.3125 "/></g></g><g style="fill:#00bf63;fill-opacity:1;"><g transform="translate(243.063245, 272.755983)"><path style="stroke:none" d="M 14.125 -6.046875 C 14.207031 -6.085938 14.289062 -6.023438 14.375 -5.859375 C 14.457031 -5.703125 14.457031 -5.609375 14.375 -5.578125 C 13.6875 -5.347656 12.851562 -4.972656 11.875 -4.453125 C 10.90625 -3.941406 9.859375 -3.320312 8.734375 -2.59375 C 7.617188 -1.863281 6.484375 -1.082031 5.328125 -0.25 C 6.003906 0.113281 6.46875 0.519531 6.71875 0.96875 C 6.976562 1.425781 7.109375 1.976562 7.109375 2.625 C 7.109375 3.132812 6.929688 3.722656 6.578125 4.390625 C 6.222656 5.054688 5.75 5.742188 5.15625 6.453125 C 4.570312 7.171875 3.910156 7.863281 3.171875 8.53125 C 2.441406 9.195312 1.6875 9.796875 0.90625 10.328125 C 0.125 10.867188 -0.628906 11.300781 -1.359375 11.625 C -2.097656 11.945312 -2.753906 12.109375 -3.328125 12.109375 C -3.890625 12.109375 -4.335938 11.984375 -4.671875 11.734375 C -5.015625 11.484375 -5.257812 11.179688 -5.40625 10.828125 C -5.550781 10.472656 -5.625 10.140625 -5.625 9.828125 C -5.625 9.285156 -5.378906 8.644531 -4.890625 7.90625 C -4.410156 7.175781 -3.742188 6.390625 -2.890625 5.546875 C -2.046875 4.703125 -1.085938 3.828125 -0.015625 2.921875 C 1.046875 2.015625 2.171875 1.128906 3.359375 0.265625 C 3.242188 0.234375 3.113281 0.203125 2.96875 0.171875 C 2.832031 0.140625 2.695312 0.109375 2.5625 0.078125 C 2.15625 -0.0546875 1.71875 -0.257812 1.25 -0.53125 C 0.789062 -0.800781 0.398438 -1.128906 0.078125 -1.515625 C -0.234375 -1.898438 -0.390625 -2.316406 -0.390625 -2.765625 C -0.390625 -3.410156 -0.25 -4.023438 0.03125 -4.609375 C 0.320312 -5.191406 0.6875 -5.738281 1.125 -6.25 C 1.570312 -6.757812 2.019531 -7.210938 2.46875 -7.609375 C 2.925781 -8.015625 3.320312 -8.34375 3.65625 -8.59375 C 3.945312 -8.789062 4.101562 -9.003906 4.125 -9.234375 C 4.144531 -9.429688 4.332031 -9.613281 4.6875 -9.78125 C 5.25 -10.03125 5.820312 -10.289062 6.40625 -10.5625 C 6.988281 -10.832031 7.421875 -10.96875 7.703125 -10.96875 C 7.929688 -10.96875 8.125 -10.863281 8.28125 -10.65625 C 8.4375 -10.445312 8.523438 -10.234375 8.546875 -10.015625 C 8.566406 -9.796875 8.46875 -9.644531 8.25 -9.5625 C 7.789062 -9.394531 7.234375 -9.109375 6.578125 -8.703125 C 5.929688 -8.304688 5.257812 -7.832031 4.5625 -7.28125 C 3.875 -6.738281 3.226562 -6.171875 2.625 -5.578125 C 2.03125 -4.984375 1.539062 -4.410156 1.15625 -3.859375 C 0.78125 -3.304688 0.59375 -2.816406 0.59375 -2.390625 C 0.59375 -2.109375 0.75 -1.878906 1.0625 -1.703125 C 1.375 -1.535156 1.757812 -1.398438 2.21875 -1.296875 C 2.6875 -1.191406 3.148438 -1.0625 3.609375 -0.90625 C 3.785156 -0.863281 3.953125 -0.8125 4.109375 -0.75 C 4.265625 -0.695312 4.414062 -0.632812 4.5625 -0.5625 C 5.800781 -1.4375 7.015625 -2.242188 8.203125 -2.984375 C 9.398438 -3.722656 10.507812 -4.359375 11.53125 -4.890625 C 12.550781 -5.429688 13.414062 -5.816406 14.125 -6.046875 Z M 5.90625 1.359375 C 5.90625 1.097656 5.757812 0.910156 5.46875 0.796875 C 5.1875 0.679688 4.8125 0.582031 4.34375 0.5 C 3.15625 1.40625 2.007812 2.328125 0.90625 3.265625 C -0.1875 4.210938 -1.164062 5.132812 -2.03125 6.03125 C -2.894531 6.9375 -3.578125 7.765625 -4.078125 8.515625 C -4.585938 9.265625 -4.84375 9.894531 -4.84375 10.40625 C -4.84375 10.632812 -4.75 10.847656 -4.5625 11.046875 C -4.382812 11.253906 -4.109375 11.335938 -3.734375 11.296875 C -3.085938 11.210938 -2.40625 10.972656 -1.6875 10.578125 C -0.976562 10.191406 -0.257812 9.695312 0.46875 9.09375 C 1.195312 8.5 1.882812 7.84375 2.53125 7.125 C 3.1875 6.40625 3.765625 5.6875 4.265625 4.96875 C 4.765625 4.257812 5.160156 3.585938 5.453125 2.953125 C 5.753906 2.316406 5.90625 1.785156 5.90625 1.359375 Z M 5.90625 1.359375 "/></g></g><g style="fill:#00bf63;fill-opacity:1;"><g transform="translate(254.842903, 272.755983)"><path style="stroke:none" d="M 14.125 -6.046875 C 14.207031 -6.085938 14.289062 -6.023438 14.375 -5.859375 C 14.457031 -5.703125 14.457031 -5.609375 14.375 -5.578125 C 13.6875 -5.347656 12.851562 -4.972656 11.875 -4.453125 C 10.90625 -3.941406 9.859375 -3.320312 8.734375 -2.59375 C 7.617188 -1.863281 6.484375 -1.082031 5.328125 -0.25 C 6.003906 0.113281 6.46875 0.519531 6.71875 0.96875 C 6.976562 1.425781 7.109375 1.976562 7.109375 2.625 C 7.109375 3.132812 6.929688 3.722656 6.578125 4.390625 C 6.222656 5.054688 5.75 5.742188 5.15625 6.453125 C 4.570312 7.171875 3.910156 7.863281 3.171875 8.53125 C 2.441406 9.195312 1.6875 9.796875 0.90625 10.328125 C 0.125 10.867188 -0.628906 11.300781 -1.359375 11.625 C -2.097656 11.945312 -2.753906 12.109375 -3.328125 12.109375 C -3.890625 12.109375 -4.335938 11.984375 -4.671875 11.734375 C -5.015625 11.484375 -5.257812 11.179688 -5.40625 10.828125 C -5.550781 10.472656 -5.625 10.140625 -5.625 9.828125 C -5.625 9.285156 -5.378906 8.644531 -4.890625 7.90625 C -4.410156 7.175781 -3.742188 6.390625 -2.890625 5.546875 C -2.046875 4.703125 -1.085938 3.828125 -0.015625 2.921875 C 1.046875 2.015625 2.171875 1.128906 3.359375 0.265625 C 3.242188 0.234375 3.113281 0.203125 2.96875 0.171875 C 2.832031 0.140625 2.695312 0.109375 2.5625 0.078125 C 2.15625 -0.0546875 1.71875 -0.257812 1.25 -0.53125 C 0.789062 -0.800781 0.398438 -1.128906 0.078125 -1.515625 C -0.234375 -1.898438 -0.390625 -2.316406 -0.390625 -2.765625 C -0.390625 -3.410156 -0.25 -4.023438 0.03125 -4.609375 C 0.320312 -5.191406 0.6875 -5.738281 1.125 -6.25 C 1.570312 -6.757812 2.019531 -7.210938 2.46875 -7.609375 C 2.925781 -8.015625 3.320312 -8.34375 3.65625 -8.59375 C 3.945312 -8.789062 4.101562 -9.003906 4.125 -9.234375 C 4.144531 -9.429688 4.332031 -9.613281 4.6875 -9.78125 C 5.25 -10.03125 5.820312 -10.289062 6.40625 -10.5625 C 6.988281 -10.832031 7.421875 -10.96875 7.703125 -10.96875 C 7.929688 -10.96875 8.125 -10.863281 8.28125 -10.65625 C 8.4375 -10.445312 8.523438 -10.234375 8.546875 -10.015625 C 8.566406 -9.796875 8.46875 -9.644531 8.25 -9.5625 C 7.789062 -9.394531 7.234375 -9.109375 6.578125 -8.703125 C 5.929688 -8.304688 5.257812 -7.832031 4.5625 -7.28125 C 3.875 -6.738281 3.226562 -6.171875 2.625 -5.578125 C 2.03125 -4.984375 1.539062 -4.410156 1.15625 -3.859375 C 0.78125 -3.304688 0.59375 -2.816406 0.59375 -2.390625 C 0.59375 -2.109375 0.75 -1.878906 1.0625 -1.703125 C 1.375 -1.535156 1.757812 -1.398438 2.21875 -1.296875 C 2.6875 -1.191406 3.148438 -1.0625 3.609375 -0.90625 C 3.785156 -0.863281 3.953125 -0.8125 4.109375 -0.75 C 4.265625 -0.695312 4.414062 -0.632812 4.5625 -0.5625 C 5.800781 -1.4375 7.015625 -2.242188 8.203125 -2.984375 C 9.398438 -3.722656 10.507812 -4.359375 11.53125 -4.890625 C 12.550781 -5.429688 13.414062 -5.816406 14.125 -6.046875 Z M 5.90625 1.359375 C 5.90625 1.097656 5.757812 0.910156 5.46875 0.796875 C 5.1875 0.679688 4.8125 0.582031 4.34375 0.5 C 3.15625 1.40625 2.007812 2.328125 0.90625 3.265625 C -0.1875 4.210938 -1.164062 5.132812 -2.03125 6.03125 C -2.894531 6.9375 -3.578125 7.765625 -4.078125 8.515625 C -4.585938 9.265625 -4.84375 9.894531 -4.84375 10.40625 C -4.84375 10.632812 -4.75 10.847656 -4.5625 11.046875 C -4.382812 11.253906 -4.109375 11.335938 -3.734375 11.296875 C -3.085938 11.210938 -2.40625 10.972656 -1.6875 10.578125 C -0.976562 10.191406 -0.257812 9.695312 0.46875 9.09375 C 1.195312 8.5 1.882812 7.84375 2.53125 7.125 C 3.1875 6.40625 3.765625 5.6875 4.265625 4.96875 C 4.765625 4.257812 5.160156 3.585938 5.453125 2.953125 C 5.753906 2.316406 5.90625 1.785156 5.90625 1.359375 Z M 5.90625 1.359375 "/></g></g><g style="fill:#00bf63;fill-opacity:1;"><g transform="translate(266.622561, 272.755983)"><path style="stroke:none" d="M 5.65625 -12.671875 C 5.59375 -12.535156 5.484375 -12.488281 5.328125 -12.53125 C 5.179688 -12.570312 5.046875 -12.65625 4.921875 -12.78125 C 4.804688 -12.90625 4.765625 -13.023438 4.796875 -13.140625 C 4.828125 -13.222656 4.867188 -13.394531 4.921875 -13.65625 C 4.984375 -13.925781 5.054688 -14.226562 5.140625 -14.5625 C 5.222656 -14.894531 5.300781 -15.207031 5.375 -15.5 C 5.445312 -15.789062 5.5 -16 5.53125 -16.125 C 5.5625 -16.257812 5.664062 -16.3125 5.84375 -16.28125 C 6.03125 -16.25 6.226562 -16.160156 6.4375 -16.015625 C 6.65625 -15.878906 6.828125 -15.726562 6.953125 -15.5625 C 7.085938 -15.394531 7.132812 -15.25 7.09375 -15.125 C 7.019531 -14.957031 6.878906 -14.703125 6.671875 -14.359375 C 6.472656 -14.023438 6.269531 -13.695312 6.0625 -13.375 C 5.851562 -13.050781 5.71875 -12.816406 5.65625 -12.671875 Z M 1.90625 1.796875 C 1.539062 1.796875 1.210938 1.695312 0.921875 1.5 C 0.640625 1.300781 0.5 0.925781 0.5 0.375 C 0.5 -0.21875 0.566406 -0.894531 0.703125 -1.65625 C 0.835938 -2.414062 1.003906 -3.171875 1.203125 -3.921875 C 1.398438 -4.679688 1.601562 -5.363281 1.8125 -5.96875 C 2.019531 -6.570312 2.191406 -6.992188 2.328125 -7.234375 C 2.390625 -7.347656 2.40625 -7.484375 2.375 -7.640625 C 2.351562 -7.710938 2.320312 -7.769531 2.28125 -7.8125 C 2.238281 -7.851562 2.242188 -7.925781 2.296875 -8.03125 C 2.578125 -8.570312 2.769531 -8.9375 2.875 -9.125 C 2.976562 -9.3125 3.070312 -9.414062 3.15625 -9.4375 C 3.289062 -9.46875 3.425781 -9.453125 3.5625 -9.390625 C 3.800781 -9.304688 4.046875 -9.15625 4.296875 -8.9375 C 4.546875 -8.726562 4.75 -8.515625 4.90625 -8.296875 C 5.0625 -8.085938 5.109375 -7.929688 5.046875 -7.828125 C 4.679688 -7.265625 4.300781 -6.609375 3.90625 -5.859375 C 3.519531 -5.117188 3.15625 -4.347656 2.8125 -3.546875 C 2.46875 -2.742188 2.175781 -1.992188 1.9375 -1.296875 C 1.695312 -0.597656 1.546875 -0.015625 1.484375 0.453125 C 1.429688 0.921875 1.5 1.195312 1.6875 1.28125 C 1.914062 1.382812 2.25 1.3125 2.6875 1.0625 C 3.132812 0.8125 3.65625 0.4375 4.25 -0.0625 C 4.851562 -0.5625 5.492188 -1.140625 6.171875 -1.796875 C 6.847656 -2.460938 7.523438 -3.160156 8.203125 -3.890625 C 8.878906 -4.617188 9.515625 -5.34375 10.109375 -6.0625 C 10.710938 -6.78125 11.238281 -7.4375 11.6875 -8.03125 C 11.882812 -8.289062 12.03125 -8.398438 12.125 -8.359375 C 12.226562 -8.316406 12.28125 -8.21875 12.28125 -8.0625 C 12.289062 -7.90625 12.25 -7.78125 12.15625 -7.6875 C 12.125 -7.632812 11.960938 -7.425781 11.671875 -7.0625 C 11.378906 -6.695312 11 -6.226562 10.53125 -5.65625 C 10.0625 -5.09375 9.53125 -4.476562 8.9375 -3.8125 C 8.34375 -3.144531 7.722656 -2.484375 7.078125 -1.828125 C 6.441406 -1.171875 5.804688 -0.566406 5.171875 -0.015625 C 4.535156 0.535156 3.9375 0.972656 3.375 1.296875 C 2.820312 1.628906 2.332031 1.796875 1.90625 1.796875 Z M 1.90625 1.796875 "/></g></g><g style="fill:#00bf63;fill-opacity:1;"><g transform="translate(275.611653, 272.755983)"><path style="stroke:none" d="M 14.125 -6.046875 C 14.207031 -6.085938 14.289062 -6.023438 14.375 -5.859375 C 14.457031 -5.703125 14.457031 -5.609375 14.375 -5.578125 C 13.6875 -5.347656 12.851562 -4.972656 11.875 -4.453125 C 10.90625 -3.941406 9.859375 -3.320312 8.734375 -2.59375 C 7.617188 -1.863281 6.484375 -1.082031 5.328125 -0.25 C 6.003906 0.113281 6.46875 0.519531 6.71875 0.96875 C 6.976562 1.425781 7.109375 1.976562 7.109375 2.625 C 7.109375 3.132812 6.929688 3.722656 6.578125 4.390625 C 6.222656 5.054688 5.75 5.742188 5.15625 6.453125 C 4.570312 7.171875 3.910156 7.863281 3.171875 8.53125 C 2.441406 9.195312 1.6875 9.796875 0.90625 10.328125 C 0.125 10.867188 -0.628906 11.300781 -1.359375 11.625 C -2.097656 11.945312 -2.753906 12.109375 -3.328125 12.109375 C -3.890625 12.109375 -4.335938 11.984375 -4.671875 11.734375 C -5.015625 11.484375 -5.257812 11.179688 -5.40625 10.828125 C -5.550781 10.472656 -5.625 10.140625 -5.625 9.828125 C -5.625 9.285156 -5.378906 8.644531 -4.890625 7.90625 C -4.410156 7.175781 -3.742188 6.390625 -2.890625 5.546875 C -2.046875 4.703125 -1.085938 3.828125 -0.015625 2.921875 C 1.046875 2.015625 2.171875 1.128906 3.359375 0.265625 C 3.242188 0.234375 3.113281 0.203125 2.96875 0.171875 C 2.832031 0.140625 2.695312 0.109375 2.5625 0.078125 C 2.15625 -0.0546875 1.71875 -0.257812 1.25 -0.53125 C 0.789062 -0.800781 0.398438 -1.128906 0.078125 -1.515625 C -0.234375 -1.898438 -0.390625 -2.316406 -0.390625 -2.765625 C -0.390625 -3.410156 -0.25 -4.023438 0.03125 -4.609375 C 0.320312 -5.191406 0.6875 -5.738281 1.125 -6.25 C 1.570312 -6.757812 2.019531 -7.210938 2.46875 -7.609375 C 2.925781 -8.015625 3.320312 -8.34375 3.65625 -8.59375 C 3.945312 -8.789062 4.101562 -9.003906 4.125 -9.234375 C 4.144531 -9.429688 4.332031 -9.613281 4.6875 -9.78125 C 5.25 -10.03125 5.820312 -10.289062 6.40625 -10.5625 C 6.988281 -10.832031 7.421875 -10.96875 7.703125 -10.96875 C 7.929688 -10.96875 8.125 -10.863281 8.28125 -10.65625 C 8.4375 -10.445312 8.523438 -10.234375 8.546875 -10.015625 C 8.566406 -9.796875 8.46875 -9.644531 8.25 -9.5625 C 7.789062 -9.394531 7.234375 -9.109375 6.578125 -8.703125 C 5.929688 -8.304688 5.257812 -7.832031 4.5625 -7.28125 C 3.875 -6.738281 3.226562 -6.171875 2.625 -5.578125 C 2.03125 -4.984375 1.539062 -4.410156 1.15625 -3.859375 C 0.78125 -3.304688 0.59375 -2.816406 0.59375 -2.390625 C 0.59375 -2.109375 0.75 -1.878906 1.0625 -1.703125 C 1.375 -1.535156 1.757812 -1.398438 2.21875 -1.296875 C 2.6875 -1.191406 3.148438 -1.0625 3.609375 -0.90625 C 3.785156 -0.863281 3.953125 -0.8125 4.109375 -0.75 C 4.265625 -0.695312 4.414062 -0.632812 4.5625 -0.5625 C 5.800781 -1.4375 7.015625 -2.242188 8.203125 -2.984375 C 9.398438 -3.722656 10.507812 -4.359375 11.53125 -4.890625 C 12.550781 -5.429688 13.414062 -5.816406 14.125 -6.046875 Z M 5.90625 1.359375 C 5.90625 1.097656 5.757812 0.910156 5.46875 0.796875 C 5.1875 0.679688 4.8125 0.582031 4.34375 0.5 C 3.15625 1.40625 2.007812 2.328125 0.90625 3.265625 C -0.1875 4.210938 -1.164062 5.132812 -2.03125 6.03125 C -2.894531 6.9375 -3.578125 7.765625 -4.078125 8.515625 C -4.585938 9.265625 -4.84375 9.894531 -4.84375 10.40625 C -4.84375 10.632812 -4.75 10.847656 -4.5625 11.046875 C -4.382812 11.253906 -4.109375 11.335938 -3.734375 11.296875 C -3.085938 11.210938 -2.40625 10.972656 -1.6875 10.578125 C -0.976562 10.191406 -0.257812 9.695312 0.46875 9.09375 C 1.195312 8.5 1.882812 7.84375 2.53125 7.125 C 3.1875 6.40625 3.765625 5.6875 4.265625 4.96875 C 4.765625 4.257812 5.160156 3.585938 5.453125 2.953125 C 5.753906 2.316406 5.90625 1.785156 5.90625 1.359375 Z M 5.90625 1.359375 "/></g></g><g style="fill:#00bf63;fill-opacity:1;"><g transform="translate(287.391311, 272.755983)"><path style="stroke:none" d="M 11.765625 -16.296875 C 12.648438 -16.296875 13.351562 -16.238281 13.875 -16.125 C 14.40625 -16.007812 14.796875 -15.863281 15.046875 -15.6875 C 15.304688 -15.519531 15.476562 -15.359375 15.5625 -15.203125 C 15.644531 -15.046875 15.6875 -14.925781 15.6875 -14.84375 C 15.6875 -14.613281 15.625 -14.421875 15.5 -14.265625 C 15.375 -14.109375 15.222656 -14.019531 15.046875 -14 C 14.960938 -14 14.882812 -14.066406 14.8125 -14.203125 C 14.75 -14.347656 14.785156 -14.460938 14.921875 -14.546875 C 15.015625 -14.628906 15.0625 -14.734375 15.0625 -14.859375 C 15.0625 -14.984375 14.941406 -15.109375 14.703125 -15.234375 C 14.472656 -15.367188 14.066406 -15.484375 13.484375 -15.578125 C 12.910156 -15.679688 12.101562 -15.734375 11.0625 -15.734375 C 10.71875 -15.734375 10.113281 -15.703125 9.25 -15.640625 C 8.382812 -15.585938 7.351562 -15.492188 6.15625 -15.359375 C 5.5625 -13.785156 4.984375 -12.078125 4.421875 -10.234375 C 3.859375 -8.398438 3.328125 -6.523438 2.828125 -4.609375 C 2.335938 -2.691406 1.898438 -0.800781 1.515625 1.0625 C 1.128906 2.925781 0.816406 4.679688 0.578125 6.328125 C 0.335938 7.984375 0.191406 9.460938 0.140625 10.765625 C 0.109375 11.660156 0.175781 12.375 0.34375 12.90625 C 0.507812 13.4375 0.691406 13.84375 0.890625 14.125 C 1.097656 14.40625 1.238281 14.609375 1.3125 14.734375 C 1.394531 14.859375 1.335938 14.953125 1.140625 15.015625 C 0.972656 15.066406 0.738281 15.023438 0.4375 14.890625 C 0.144531 14.765625 -0.148438 14.523438 -0.453125 14.171875 C -0.753906 13.828125 -1.007812 13.359375 -1.21875 12.765625 C -1.425781 12.171875 -1.519531 11.445312 -1.5 10.59375 C -1.46875 9.226562 -1.328125 7.71875 -1.078125 6.0625 C -0.835938 4.40625 -0.507812 2.671875 -0.09375 0.859375 C 0.3125 -0.953125 0.769531 -2.78125 1.28125 -4.625 C 1.789062 -6.476562 2.320312 -8.300781 2.875 -10.09375 C 3.425781 -11.894531 3.972656 -13.59375 4.515625 -15.1875 C 3.265625 -15.039062 1.9375 -14.875 0.53125 -14.6875 C -0.863281 -14.5 -2.265625 -14.285156 -3.671875 -14.046875 C -5.078125 -13.816406 -6.4375 -13.5625 -7.75 -13.28125 C -9.070312 -13.007812 -10.269531 -12.71875 -11.34375 -12.40625 C -11.4375 -12.363281 -11.539062 -12.40625 -11.65625 -12.53125 C -11.769531 -12.65625 -11.859375 -12.8125 -11.921875 -13 C -11.992188 -13.195312 -12.015625 -13.375 -11.984375 -13.53125 C -11.953125 -13.6875 -11.84375 -13.785156 -11.65625 -13.828125 C -10.976562 -13.984375 -10.03125 -14.148438 -8.8125 -14.328125 C -7.59375 -14.503906 -6.21875 -14.679688 -4.6875 -14.859375 C -3.15625 -15.046875 -1.578125 -15.222656 0.046875 -15.390625 C 1.679688 -15.566406 3.25 -15.722656 4.75 -15.859375 C 5.457031 -17.878906 6.101562 -19.660156 6.6875 -21.203125 C 7.28125 -22.742188 7.742188 -23.867188 8.078125 -24.578125 C 8.160156 -24.753906 8.363281 -24.832031 8.6875 -24.8125 C 9.007812 -24.800781 9.382812 -24.753906 9.8125 -24.671875 C 10.238281 -24.597656 10.617188 -24.476562 10.953125 -24.3125 C 11.296875 -24.15625 11.441406 -23.988281 11.390625 -23.8125 C 11.367188 -23.71875 11.25 -23.660156 11.03125 -23.640625 C 10.820312 -23.617188 10.59375 -23.519531 10.34375 -23.34375 C 9.769531 -22.914062 9.140625 -22.046875 8.453125 -20.734375 C 7.773438 -19.429688 7.082031 -17.847656 6.375 -15.984375 C 7.5625 -16.078125 8.625 -16.148438 9.5625 -16.203125 C 10.5 -16.265625 11.234375 -16.296875 11.765625 -16.296875 Z M 11.765625 -16.296875 "/></g></g><g style="fill:#00bf63;fill-opacity:1;"><g transform="translate(294.034367, 272.755983)"><path style="stroke:none" d="M 8.96875 3.359375 C 8.539062 3.359375 8.148438 3.234375 7.796875 2.984375 C 7.453125 2.742188 7.175781 2.445312 6.96875 2.09375 C 6.769531 1.738281 6.671875 1.410156 6.671875 1.109375 C 6.671875 0.585938 6.757812 -0.0351562 6.9375 -0.765625 C 7.125 -1.503906 7.351562 -2.289062 7.625 -3.125 C 7.894531 -3.957031 8.175781 -4.789062 8.46875 -5.625 C 8.769531 -6.46875 9.035156 -7.269531 9.265625 -8.03125 C 8.753906 -7.570312 8.203125 -7 7.609375 -6.3125 C 7.015625 -5.625 6.40625 -4.910156 5.78125 -4.171875 C 5.164062 -3.429688 4.570312 -2.742188 4 -2.109375 C 3.425781 -1.472656 2.890625 -0.953125 2.390625 -0.546875 C 1.898438 -0.148438 1.488281 0.046875 1.15625 0.046875 C 0.988281 0.046875 0.800781 -0.0234375 0.59375 -0.171875 C 0.394531 -0.316406 0.21875 -0.515625 0.0625 -0.765625 C -0.09375 -1.023438 -0.171875 -1.296875 -0.171875 -1.578125 C -0.171875 -1.921875 -0.078125 -2.414062 0.109375 -3.0625 C 0.296875 -3.707031 0.554688 -4.40625 0.890625 -5.15625 C 1.222656 -5.90625 1.597656 -6.625 2.015625 -7.3125 C 2.429688 -8 2.867188 -8.5625 3.328125 -9 C 3.796875 -9.4375 4.257812 -9.65625 4.71875 -9.65625 C 5.289062 -9.65625 5.800781 -9.523438 6.25 -9.265625 C 6.695312 -9.003906 7.039062 -8.71875 7.28125 -8.40625 C 7.519531 -8.101562 7.601562 -7.90625 7.53125 -7.8125 C 7.4375 -7.675781 7.3125 -7.65625 7.15625 -7.75 C 7.007812 -7.851562 6.84375 -7.984375 6.65625 -8.140625 C 6.476562 -8.296875 6.300781 -8.375 6.125 -8.375 C 5.863281 -8.375 5.523438 -8.21875 5.109375 -7.90625 C 4.703125 -7.59375 4.269531 -7.175781 3.8125 -6.65625 C 3.363281 -6.132812 2.941406 -5.554688 2.546875 -4.921875 C 2.148438 -4.296875 1.828125 -3.664062 1.578125 -3.03125 C 1.328125 -2.394531 1.203125 -1.8125 1.203125 -1.28125 C 1.203125 -1.15625 1.238281 -1.070312 1.3125 -1.03125 C 1.394531 -1 1.453125 -0.984375 1.484375 -0.984375 C 1.679688 -0.984375 1.957031 -1.128906 2.3125 -1.421875 C 2.675781 -1.710938 3.085938 -2.09375 3.546875 -2.5625 C 4.015625 -3.039062 4.488281 -3.554688 4.96875 -4.109375 C 5.457031 -4.660156 5.925781 -5.195312 6.375 -5.71875 C 6.820312 -6.25 7.210938 -6.71875 7.546875 -7.125 C 7.878906 -7.539062 8.113281 -7.84375 8.25 -8.03125 C 8.675781 -8.550781 8.992188 -8.921875 9.203125 -9.140625 C 9.421875 -9.367188 9.613281 -9.484375 9.78125 -9.484375 C 9.957031 -9.484375 10.179688 -9.378906 10.453125 -9.171875 C 10.734375 -8.972656 10.875 -8.707031 10.875 -8.375 C 10.875 -8.226562 10.804688 -7.914062 10.671875 -7.4375 C 10.535156 -6.957031 10.359375 -6.378906 10.140625 -5.703125 C 9.929688 -5.023438 9.707031 -4.300781 9.46875 -3.53125 C 9.226562 -2.769531 9 -2.019531 8.78125 -1.28125 C 8.570312 -0.539062 8.398438 0.117188 8.265625 0.703125 C 8.140625 1.285156 8.078125 1.742188 8.078125 2.078125 C 8.078125 2.285156 8.140625 2.421875 8.265625 2.484375 C 8.390625 2.554688 8.484375 2.59375 8.546875 2.59375 C 8.828125 2.59375 9.234375 2.378906 9.765625 1.953125 C 10.304688 1.535156 10.910156 0.988281 11.578125 0.3125 C 12.242188 -0.351562 12.929688 -1.078125 13.640625 -1.859375 C 14.347656 -2.640625 15.019531 -3.398438 15.65625 -4.140625 C 16.300781 -4.890625 16.863281 -5.539062 17.34375 -6.09375 C 17.832031 -6.644531 18.1875 -7.019531 18.40625 -7.21875 C 18.582031 -7.375 18.695312 -7.375 18.75 -7.21875 C 18.8125 -7.0625 18.800781 -6.9375 18.71875 -6.84375 C 18.707031 -6.8125 18.53125 -6.597656 18.1875 -6.203125 C 17.851562 -5.804688 17.421875 -5.296875 16.890625 -4.671875 C 16.367188 -4.054688 15.789062 -3.378906 15.15625 -2.640625 C 14.519531 -1.898438 13.878906 -1.164062 13.234375 -0.4375 C 12.640625 0.21875 12.078125 0.835938 11.546875 1.421875 C 11.015625 2.003906 10.523438 2.472656 10.078125 2.828125 C 9.628906 3.179688 9.257812 3.359375 8.96875 3.359375 Z M 8.96875 3.359375 "/></g></g><g style="fill:#00bf63;fill-opacity:1;"><g transform="translate(309.296056, 272.755983)"><path style="stroke:none" d="M 0.6875 3.03125 C 0.601562 3.101562 0.445312 3.101562 0.21875 3.03125 C -0.0078125 2.96875 -0.21875 2.84375 -0.40625 2.65625 C -0.59375 2.46875 -0.679688 2.21875 -0.671875 1.90625 C -0.617188 1.28125 -0.460938 0.460938 -0.203125 -0.546875 C 0.046875 -1.566406 0.375 -2.6875 0.78125 -3.90625 C 1.1875 -5.125 1.617188 -6.332031 2.078125 -7.53125 C 2.128906 -7.644531 2.128906 -7.757812 2.078125 -7.875 L 2.046875 -7.921875 C 1.984375 -8.054688 1.976562 -8.179688 2.03125 -8.296875 C 2.144531 -8.523438 2.28125 -8.800781 2.4375 -9.125 C 2.601562 -9.445312 2.769531 -9.734375 2.9375 -9.984375 C 3.101562 -10.242188 3.234375 -10.390625 3.328125 -10.421875 C 3.453125 -10.453125 3.613281 -10.414062 3.8125 -10.3125 C 4.019531 -10.21875 4.207031 -10.082031 4.375 -9.90625 C 4.539062 -9.738281 4.613281 -9.550781 4.59375 -9.34375 C 4.570312 -9.1875 4.421875 -8.796875 4.140625 -8.171875 C 3.867188 -7.546875 3.535156 -6.757812 3.140625 -5.8125 C 2.742188 -4.863281 2.359375 -3.828125 1.984375 -2.703125 C 1.617188 -1.585938 1.335938 -0.457031 1.140625 0.6875 C 1.109375 0.875 1.203125 0.816406 1.421875 0.515625 C 1.640625 0.222656 1.953125 -0.222656 2.359375 -0.828125 C 2.765625 -1.441406 3.238281 -2.132812 3.78125 -2.90625 C 4.320312 -3.6875 4.90625 -4.476562 5.53125 -5.28125 C 6.15625 -6.09375 6.789062 -6.835938 7.4375 -7.515625 C 8.09375 -8.203125 8.734375 -8.753906 9.359375 -9.171875 C 9.984375 -9.597656 10.5625 -9.8125 11.09375 -9.8125 C 11.414062 -9.8125 11.6875 -9.6875 11.90625 -9.4375 C 12.132812 -9.1875 12.25 -8.800781 12.25 -8.28125 C 12.25 -8 12.175781 -7.582031 12.03125 -7.03125 C 11.894531 -6.488281 11.722656 -5.882812 11.515625 -5.21875 C 11.316406 -4.550781 11.109375 -3.875 10.890625 -3.1875 C 10.679688 -2.507812 10.492188 -1.875 10.328125 -1.28125 C 10.160156 -0.6875 10.046875 -0.195312 9.984375 0.1875 C 9.929688 0.570312 9.960938 0.796875 10.078125 0.859375 C 10.242188 0.960938 10.515625 0.894531 10.890625 0.65625 C 11.273438 0.414062 11.722656 0.0703125 12.234375 -0.375 C 12.742188 -0.832031 13.285156 -1.347656 13.859375 -1.921875 C 14.429688 -2.503906 15 -3.09375 15.5625 -3.6875 C 16.125 -4.289062 16.640625 -4.851562 17.109375 -5.375 C 17.578125 -5.90625 17.96875 -6.347656 18.28125 -6.703125 C 18.59375 -7.054688 18.78125 -7.269531 18.84375 -7.34375 C 19.070312 -7.582031 19.234375 -7.628906 19.328125 -7.484375 C 19.429688 -7.347656 19.421875 -7.191406 19.296875 -7.015625 C 19.242188 -6.953125 19.039062 -6.695312 18.6875 -6.25 C 18.332031 -5.800781 17.878906 -5.25 17.328125 -4.59375 C 16.773438 -3.9375 16.171875 -3.242188 15.515625 -2.515625 C 14.859375 -1.796875 14.195312 -1.117188 13.53125 -0.484375 C 12.875 0.148438 12.257812 0.671875 11.6875 1.078125 C 11.125 1.484375 10.660156 1.6875 10.296875 1.6875 C 9.898438 1.6875 9.570312 1.585938 9.3125 1.390625 C 9.050781 1.203125 8.859375 0.992188 8.734375 0.765625 C 8.609375 0.535156 8.546875 0.347656 8.546875 0.203125 C 8.546875 -0.460938 8.644531 -1.195312 8.84375 -2 C 9.039062 -2.8125 9.273438 -3.613281 9.546875 -4.40625 C 9.816406 -5.207031 10.078125 -5.953125 10.328125 -6.640625 C 10.578125 -7.335938 10.757812 -7.910156 10.875 -8.359375 C 11 -8.816406 11.003906 -9.085938 10.890625 -9.171875 C 10.660156 -9.347656 10.289062 -9.257812 9.78125 -8.90625 C 9.269531 -8.550781 8.660156 -7.984375 7.953125 -7.203125 C 7.242188 -6.429688 6.484375 -5.507812 5.671875 -4.4375 C 4.859375 -3.375 4.023438 -2.203125 3.171875 -0.921875 C 2.328125 0.347656 1.5 1.664062 0.6875 3.03125 Z M 0.6875 3.03125 "/></g></g><g style="fill:#00bf63;fill-opacity:1;"><g transform="translate(325.570253, 272.755983)"><path style="stroke:none" d="M 11.765625 -16.296875 C 12.648438 -16.296875 13.351562 -16.238281 13.875 -16.125 C 14.40625 -16.007812 14.796875 -15.863281 15.046875 -15.6875 C 15.304688 -15.519531 15.476562 -15.359375 15.5625 -15.203125 C 15.644531 -15.046875 15.6875 -14.925781 15.6875 -14.84375 C 15.6875 -14.613281 15.625 -14.421875 15.5 -14.265625 C 15.375 -14.109375 15.222656 -14.019531 15.046875 -14 C 14.960938 -14 14.882812 -14.066406 14.8125 -14.203125 C 14.75 -14.347656 14.785156 -14.460938 14.921875 -14.546875 C 15.015625 -14.628906 15.0625 -14.734375 15.0625 -14.859375 C 15.0625 -14.984375 14.941406 -15.109375 14.703125 -15.234375 C 14.472656 -15.367188 14.066406 -15.484375 13.484375 -15.578125 C 12.910156 -15.679688 12.101562 -15.734375 11.0625 -15.734375 C 10.71875 -15.734375 10.113281 -15.703125 9.25 -15.640625 C 8.382812 -15.585938 7.351562 -15.492188 6.15625 -15.359375 C 5.5625 -13.785156 4.984375 -12.078125 4.421875 -10.234375 C 3.859375 -8.398438 3.328125 -6.523438 2.828125 -4.609375 C 2.335938 -2.691406 1.898438 -0.800781 1.515625 1.0625 C 1.128906 2.925781 0.816406 4.679688 0.578125 6.328125 C 0.335938 7.984375 0.191406 9.460938 0.140625 10.765625 C 0.109375 11.660156 0.175781 12.375 0.34375 12.90625 C 0.507812 13.4375 0.691406 13.84375 0.890625 14.125 C 1.097656 14.40625 1.238281 14.609375 1.3125 14.734375 C 1.394531 14.859375 1.335938 14.953125 1.140625 15.015625 C 0.972656 15.066406 0.738281 15.023438 0.4375 14.890625 C 0.144531 14.765625 -0.148438 14.523438 -0.453125 14.171875 C -0.753906 13.828125 -1.007812 13.359375 -1.21875 12.765625 C -1.425781 12.171875 -1.519531 11.445312 -1.5 10.59375 C -1.46875 9.226562 -1.328125 7.71875 -1.078125 6.0625 C -0.835938 4.40625 -0.507812 2.671875 -0.09375 0.859375 C 0.3125 -0.953125 0.769531 -2.78125 1.28125 -4.625 C 1.789062 -6.476562 2.320312 -8.300781 2.875 -10.09375 C 3.425781 -11.894531 3.972656 -13.59375 4.515625 -15.1875 C 3.265625 -15.039062 1.9375 -14.875 0.53125 -14.6875 C -0.863281 -14.5 -2.265625 -14.285156 -3.671875 -14.046875 C -5.078125 -13.816406 -6.4375 -13.5625 -7.75 -13.28125 C -9.070312 -13.007812 -10.269531 -12.71875 -11.34375 -12.40625 C -11.4375 -12.363281 -11.539062 -12.40625 -11.65625 -12.53125 C -11.769531 -12.65625 -11.859375 -12.8125 -11.921875 -13 C -11.992188 -13.195312 -12.015625 -13.375 -11.984375 -13.53125 C -11.953125 -13.6875 -11.84375 -13.785156 -11.65625 -13.828125 C -10.976562 -13.984375 -10.03125 -14.148438 -8.8125 -14.328125 C -7.59375 -14.503906 -6.21875 -14.679688 -4.6875 -14.859375 C -3.15625 -15.046875 -1.578125 -15.222656 0.046875 -15.390625 C 1.679688 -15.566406 3.25 -15.722656 4.75 -15.859375 C 5.457031 -17.878906 6.101562 -19.660156 6.6875 -21.203125 C 7.28125 -22.742188 7.742188 -23.867188 8.078125 -24.578125 C 8.160156 -24.753906 8.363281 -24.832031 8.6875 -24.8125 C 9.007812 -24.800781 9.382812 -24.753906 9.8125 -24.671875 C 10.238281 -24.597656 10.617188 -24.476562 10.953125 -24.3125 C 11.296875 -24.15625 11.441406 -23.988281 11.390625 -23.8125 C 11.367188 -23.71875 11.25 -23.660156 11.03125 -23.640625 C 10.820312 -23.617188 10.59375 -23.519531 10.34375 -23.34375 C 9.769531 -22.914062 9.140625 -22.046875 8.453125 -20.734375 C 7.773438 -19.429688 7.082031 -17.847656 6.375 -15.984375 C 7.5625 -16.078125 8.625 -16.148438 9.5625 -16.203125 C 10.5 -16.265625 11.234375 -16.296875 11.765625 -16.296875 Z M 11.765625 -16.296875 "/></g></g></g></svg>