<svg xmlns="http://www.w3.org/2000/svg" xmlns:xlink="http://www.w3.org/1999/xlink" width="500" zoomAndPan="magnify" viewBox="0 0 375 374.999991" height="500" preserveAspectRatio="xMidYMid meet" version="1.2"><defs/><g id="f0609bcef8"><g style="fill:#ff914d;fill-opacity:1;"><g transform="translate(92.140832, 200.729583)"><path style="stroke:none" d="M 17.171875 -29.953125 L 17.171875 0 L 6.15625 0 L 6.15625 -56.203125 L 9.09375 -56.203125 L 36.890625 -23.875 L 36.890625 -54.984375 L 47.96875 -54.984375 L 47.96875 1.15625 L 45.046875 1.15625 Z M 17.171875 -29.953125 "/></g></g><g style="fill:#ff914d;fill-opacity:1;"><g transform="translate(146.345021, 200.729583)"><path style="stroke:none" d="M 1.234375 0 L 24.40625 -57.0625 L 25.5625 -57.0625 L 48.734375 0 L 36.34375 0 L 34.109375 -5.921875 L 15.859375 -5.921875 L 13.703125 0 Z M 19.859375 -16.25 L 30.03125 -16.25 L 25.03125 -30.5625 Z M 19.859375 -16.25 "/></g></g><g style="fill:#ff914d;fill-opacity:1;"><g transform="translate(196.622485, 200.729583)"><path style="stroke:none" d="M 31.421875 -31.71875 L 53.125 -55.90625 L 56.59375 -55.90625 L 56.59375 0 L 45.4375 0 L 45.5 -30.71875 L 31.421875 -15.9375 L 17.328125 -30.71875 L 17.328125 0 L 6.15625 0 L 6.15625 -55.90625 L 9.703125 -55.90625 Z M 31.421875 -31.71875 "/></g></g><g style="fill:#ff914d;fill-opacity:1;"><g transform="translate(259.450061, 200.729583)"><path style="stroke:none" d="M 17.171875 0 L 6.15625 0 L 6.15625 -55.0625 L 17.171875 -55.0625 Z M 17.171875 0 "/></g></g><g style="fill:#ffffff;fill-opacity:1;"><g transform="translate(106.857044, 214.909029)"><path style="stroke:none" d="M 4.921875 -8.46875 L 8.328125 0 L 6.265625 0 L 5.640625 -1.6875 L 2.40625 -1.6875 L 1.78125 0 L -0.28125 0 L 3.125 -8.46875 Z M 4.984375 -3.390625 L 4.03125 -5.84375 L 4.015625 -5.84375 L 3.0625 -3.390625 Z M 4.984375 -3.390625 "/></g></g><g style="fill:#ffffff;fill-opacity:1;"><g transform="translate(114.904761, 214.909029)"><path style="stroke:none" d="M 2.546875 -8.46875 L 2.546875 0 L 0.609375 0 L 0.609375 -8.46875 Z M 2.546875 -8.46875 "/></g></g><g style="fill:#ffffff;fill-opacity:1;"><g transform="translate(118.066363, 214.909029)"><path style="stroke:none" d="M 0.609375 -3.75 L 3.921875 -3.75 L 3.921875 -2.1875 L 0.609375 -2.1875 Z M 0.609375 -3.75 "/></g></g><g style="fill:#ffffff;fill-opacity:1;"><g transform="translate(122.603469, 214.909029)"><path style="stroke:none" d="M 0.609375 -8.46875 L 3.703125 -8.46875 C 4.566406 -8.46875 5.265625 -8.242188 5.796875 -7.796875 C 6.328125 -7.359375 6.59375 -6.710938 6.59375 -5.859375 C 6.59375 -5.015625 6.320312 -4.347656 5.78125 -3.859375 C 5.25 -3.378906 4.554688 -3.140625 3.703125 -3.140625 L 2.546875 -3.140625 L 2.546875 0 L 0.609375 0 Z M 2.546875 -4.6875 L 3.09375 -4.6875 C 3.519531 -4.6875 3.867188 -4.769531 4.140625 -4.9375 C 4.421875 -5.113281 4.5625 -5.398438 4.5625 -5.796875 C 4.5625 -6.203125 4.421875 -6.488281 4.140625 -6.65625 C 3.867188 -6.832031 3.519531 -6.921875 3.09375 -6.921875 L 2.546875 -6.921875 Z M 2.546875 -4.6875 "/></g></g><g style="fill:#ffffff;fill-opacity:1;"><g transform="translate(128.947186, 214.909029)"><path style="stroke:none" d="M 1.109375 -0.625 C 0.523438 -1.144531 0.234375 -1.8125 0.234375 -2.625 C 0.234375 -3.4375 0.535156 -4.101562 1.140625 -4.625 C 1.753906 -5.15625 2.507812 -5.421875 3.40625 -5.421875 C 4.289062 -5.421875 5.035156 -5.15625 5.640625 -4.625 C 6.242188 -4.101562 6.546875 -3.4375 6.546875 -2.625 C 6.546875 -1.820312 6.25 -1.15625 5.65625 -0.625 C 5.070312 -0.101562 4.320312 0.15625 3.40625 0.15625 C 2.457031 0.15625 1.691406 -0.101562 1.109375 -0.625 Z M 2.515625 -3.515625 C 2.285156 -3.285156 2.171875 -2.988281 2.171875 -2.625 C 2.171875 -2.257812 2.28125 -1.960938 2.5 -1.734375 C 2.726562 -1.503906 3.023438 -1.390625 3.390625 -1.390625 C 3.753906 -1.390625 4.050781 -1.503906 4.28125 -1.734375 C 4.507812 -1.972656 4.625 -2.269531 4.625 -2.625 C 4.625 -2.988281 4.503906 -3.285156 4.265625 -3.515625 C 4.023438 -3.753906 3.734375 -3.875 3.390625 -3.875 C 3.046875 -3.875 2.753906 -3.753906 2.515625 -3.515625 Z M 2.515625 -3.515625 "/></g></g><g style="fill:#ffffff;fill-opacity:1;"><g transform="translate(135.680987, 214.909029)"><path style="stroke:none" d="M 3.84375 0 L 2.625 0 L -0.203125 -5.265625 L 1.890625 -5.265625 L 3.171875 -2.421875 L 4.4375 -5.265625 L 5.6875 -5.265625 L 6.953125 -2.421875 L 8.234375 -5.265625 L 10.328125 -5.265625 L 7.5 0 L 6.265625 0 L 5.0625 -2.71875 Z M 3.84375 0 "/></g></g><g style="fill:#ffffff;fill-opacity:1;"><g transform="translate(145.771426, 214.909029)"><path style="stroke:none" d="M 5.9375 -2.375 L 2.125 -2.375 C 2.125 -2.007812 2.242188 -1.738281 2.484375 -1.5625 C 2.722656 -1.382812 2.984375 -1.296875 3.265625 -1.296875 C 3.554688 -1.296875 3.785156 -1.332031 3.953125 -1.40625 C 4.128906 -1.488281 4.328125 -1.644531 4.546875 -1.875 L 5.859375 -1.21875 C 5.316406 -0.300781 4.40625 0.15625 3.125 0.15625 C 2.332031 0.15625 1.648438 -0.113281 1.078125 -0.65625 C 0.515625 -1.207031 0.234375 -1.863281 0.234375 -2.625 C 0.234375 -3.394531 0.515625 -4.050781 1.078125 -4.59375 C 1.648438 -5.144531 2.332031 -5.421875 3.125 -5.421875 C 3.96875 -5.421875 4.648438 -5.175781 5.171875 -4.6875 C 5.691406 -4.207031 5.953125 -3.519531 5.953125 -2.625 C 5.953125 -2.5 5.945312 -2.414062 5.9375 -2.375 Z M 2.171875 -3.390625 L 4.171875 -3.390625 C 4.128906 -3.660156 4.019531 -3.867188 3.84375 -4.015625 C 3.675781 -4.160156 3.457031 -4.234375 3.1875 -4.234375 C 2.882812 -4.234375 2.644531 -4.15625 2.46875 -4 C 2.289062 -3.84375 2.191406 -3.640625 2.171875 -3.390625 Z M 2.171875 -3.390625 "/></g></g><g style="fill:#ffffff;fill-opacity:1;"><g transform="translate(151.940655, 214.909029)"><path style="stroke:none" d="M 0.609375 0 L 0.609375 -5.265625 L 2.4375 -5.265625 L 2.4375 -4.5 L 2.453125 -4.5 C 2.460938 -4.53125 2.484375 -4.566406 2.515625 -4.609375 C 2.546875 -4.648438 2.613281 -4.722656 2.71875 -4.828125 C 2.820312 -4.929688 2.929688 -5.019531 3.046875 -5.09375 C 3.160156 -5.175781 3.3125 -5.25 3.5 -5.3125 C 3.6875 -5.382812 3.875 -5.421875 4.0625 -5.421875 C 4.257812 -5.421875 4.453125 -5.390625 4.640625 -5.328125 C 4.835938 -5.273438 4.984375 -5.222656 5.078125 -5.171875 L 5.21875 -5.09375 L 4.453125 -3.546875 C 4.222656 -3.742188 3.910156 -3.84375 3.515625 -3.84375 C 3.296875 -3.84375 3.101562 -3.789062 2.9375 -3.6875 C 2.78125 -3.59375 2.671875 -3.476562 2.609375 -3.34375 C 2.546875 -3.207031 2.5 -3.09375 2.46875 -3 C 2.445312 -2.90625 2.4375 -2.828125 2.4375 -2.765625 L 2.4375 0 Z M 0.609375 0 "/></g></g><g style="fill:#ffffff;fill-opacity:1;"><g transform="translate(156.991007, 214.909029)"><path style="stroke:none" d="M 5.9375 -2.375 L 2.125 -2.375 C 2.125 -2.007812 2.242188 -1.738281 2.484375 -1.5625 C 2.722656 -1.382812 2.984375 -1.296875 3.265625 -1.296875 C 3.554688 -1.296875 3.785156 -1.332031 3.953125 -1.40625 C 4.128906 -1.488281 4.328125 -1.644531 4.546875 -1.875 L 5.859375 -1.21875 C 5.316406 -0.300781 4.40625 0.15625 3.125 0.15625 C 2.332031 0.15625 1.648438 -0.113281 1.078125 -0.65625 C 0.515625 -1.207031 0.234375 -1.863281 0.234375 -2.625 C 0.234375 -3.394531 0.515625 -4.050781 1.078125 -4.59375 C 1.648438 -5.144531 2.332031 -5.421875 3.125 -5.421875 C 3.96875 -5.421875 4.648438 -5.175781 5.171875 -4.6875 C 5.691406 -4.207031 5.953125 -3.519531 5.953125 -2.625 C 5.953125 -2.5 5.945312 -2.414062 5.9375 -2.375 Z M 2.171875 -3.390625 L 4.171875 -3.390625 C 4.128906 -3.660156 4.019531 -3.867188 3.84375 -4.015625 C 3.675781 -4.160156 3.457031 -4.234375 3.1875 -4.234375 C 2.882812 -4.234375 2.644531 -4.15625 2.46875 -4 C 2.289062 -3.84375 2.191406 -3.640625 2.171875 -3.390625 Z M 2.171875 -3.390625 "/></g></g><g style="fill:#ffffff;fill-opacity:1;"><g transform="translate(163.180766, 214.909029)"><path style="stroke:none" d="M 0.96875 -0.640625 C 0.476562 -1.179688 0.234375 -1.84375 0.234375 -2.625 C 0.234375 -3.40625 0.476562 -4.066406 0.96875 -4.609375 C 1.46875 -5.148438 2.097656 -5.421875 2.859375 -5.421875 C 3.554688 -5.421875 4.128906 -5.203125 4.578125 -4.765625 L 4.578125 -8.828125 L 6.390625 -8.828125 L 6.390625 0 L 4.59375 0 L 4.59375 -0.59375 L 4.578125 -0.59375 C 4.128906 -0.09375 3.554688 0.15625 2.859375 0.15625 C 2.097656 0.15625 1.46875 -0.109375 0.96875 -0.640625 Z M 2.515625 -3.515625 C 2.285156 -3.285156 2.171875 -2.988281 2.171875 -2.625 C 2.171875 -2.257812 2.28125 -1.960938 2.5 -1.734375 C 2.726562 -1.503906 3.023438 -1.390625 3.390625 -1.390625 C 3.753906 -1.390625 4.050781 -1.503906 4.28125 -1.734375 C 4.507812 -1.972656 4.625 -2.269531 4.625 -2.625 C 4.625 -2.988281 4.503906 -3.285156 4.265625 -3.515625 C 4.023438 -3.753906 3.734375 -3.875 3.390625 -3.875 C 3.046875 -3.875 2.753906 -3.753906 2.515625 -3.515625 Z M 2.515625 -3.515625 "/></g></g><g style="fill:#ffffff;fill-opacity:1;"><g transform="translate(170.19172, 214.909029)"><path style="stroke:none" d=""/></g></g><g style="fill:#ffffff;fill-opacity:1;"><g transform="translate(172.994045, 214.909029)"><path style="stroke:none" d="M 5.515625 -8.46875 L 5.515625 -6.78125 L 2.546875 -6.78125 L 2.546875 -5.09375 L 5.28125 -5.09375 L 5.28125 -3.390625 L 2.546875 -3.390625 L 2.546875 0 L 0.609375 0 L 0.609375 -8.46875 Z M 5.515625 -8.46875 "/></g></g><g style="fill:#ffffff;fill-opacity:1;"><g transform="translate(178.814268, 214.909029)"><path style="stroke:none" d="M 0.78125 -8.203125 C 1 -8.410156 1.253906 -8.515625 1.546875 -8.515625 C 1.835938 -8.515625 2.085938 -8.410156 2.296875 -8.203125 C 2.515625 -7.992188 2.625 -7.738281 2.625 -7.4375 C 2.625 -7.144531 2.515625 -6.890625 2.296875 -6.671875 C 2.085938 -6.460938 1.835938 -6.359375 1.546875 -6.359375 C 1.253906 -6.359375 1 -6.460938 0.78125 -6.671875 C 0.570312 -6.890625 0.46875 -7.144531 0.46875 -7.4375 C 0.46875 -7.738281 0.570312 -7.992188 0.78125 -8.203125 Z M 0.609375 -5.265625 L 0.609375 0 L 2.4375 0 L 2.4375 -5.265625 Z M 0.609375 -5.265625 "/></g></g><g style="fill:#ffffff;fill-opacity:1;"><g transform="translate(181.914288, 214.909029)"><path style="stroke:none" d="M 0.609375 0 L 0.609375 -5.265625 L 2.4375 -5.265625 L 2.4375 -4.71875 L 2.453125 -4.71875 C 2.921875 -5.1875 3.425781 -5.421875 3.96875 -5.421875 C 4.226562 -5.421875 4.484375 -5.382812 4.734375 -5.3125 C 4.992188 -5.25 5.238281 -5.144531 5.46875 -5 C 5.707031 -4.851562 5.898438 -4.648438 6.046875 -4.390625 C 6.191406 -4.128906 6.265625 -3.820312 6.265625 -3.46875 L 6.265625 0 L 4.453125 0 L 4.453125 -2.984375 C 4.453125 -3.253906 4.363281 -3.488281 4.1875 -3.6875 C 4.019531 -3.894531 3.796875 -4 3.515625 -4 C 3.234375 -4 2.984375 -3.890625 2.765625 -3.671875 C 2.546875 -3.460938 2.4375 -3.234375 2.4375 -2.984375 L 2.4375 0 Z M 0.609375 0 "/></g></g><g style="fill:#ffffff;fill-opacity:1;"><g transform="translate(188.699412, 214.909029)"><path style="stroke:none" d="M 0.96875 -0.640625 C 0.476562 -1.179688 0.234375 -1.84375 0.234375 -2.625 C 0.234375 -3.40625 0.476562 -4.066406 0.96875 -4.609375 C 1.46875 -5.148438 2.097656 -5.421875 2.859375 -5.421875 C 3.554688 -5.421875 4.128906 -5.203125 4.578125 -4.765625 L 4.578125 -5.265625 L 6.390625 -5.265625 L 6.390625 0 L 4.59375 0 L 4.59375 -0.59375 L 4.578125 -0.59375 C 4.128906 -0.09375 3.554688 0.15625 2.859375 0.15625 C 2.097656 0.15625 1.46875 -0.109375 0.96875 -0.640625 Z M 2.515625 -3.515625 C 2.285156 -3.285156 2.171875 -2.988281 2.171875 -2.625 C 2.171875 -2.257812 2.28125 -1.960938 2.5 -1.734375 C 2.726562 -1.503906 3.023438 -1.390625 3.390625 -1.390625 C 3.753906 -1.390625 4.050781 -1.503906 4.28125 -1.734375 C 4.507812 -1.972656 4.625 -2.269531 4.625 -2.625 C 4.625 -2.988281 4.503906 -3.285156 4.265625 -3.515625 C 4.023438 -3.753906 3.734375 -3.875 3.390625 -3.875 C 3.046875 -3.875 2.753906 -3.753906 2.515625 -3.515625 Z M 2.515625 -3.515625 "/></g></g><g style="fill:#ffffff;fill-opacity:1;"><g transform="translate(195.710365, 214.909029)"><path style="stroke:none" d="M 0.609375 0 L 0.609375 -5.265625 L 2.4375 -5.265625 L 2.4375 -4.71875 L 2.453125 -4.71875 C 2.921875 -5.1875 3.425781 -5.421875 3.96875 -5.421875 C 4.226562 -5.421875 4.484375 -5.382812 4.734375 -5.3125 C 4.992188 -5.25 5.238281 -5.144531 5.46875 -5 C 5.707031 -4.851562 5.898438 -4.648438 6.046875 -4.390625 C 6.191406 -4.128906 6.265625 -3.820312 6.265625 -3.46875 L 6.265625 0 L 4.453125 0 L 4.453125 -2.984375 C 4.453125 -3.253906 4.363281 -3.488281 4.1875 -3.6875 C 4.019531 -3.894531 3.796875 -4 3.515625 -4 C 3.234375 -4 2.984375 -3.890625 2.765625 -3.671875 C 2.546875 -3.460938 2.4375 -3.234375 2.4375 -2.984375 L 2.4375 0 Z M 0.609375 0 "/></g></g><g style="fill:#ffffff;fill-opacity:1;"><g transform="translate(202.495495, 214.909029)"><path style="stroke:none" d="M 3.421875 -3.9375 C 3.078125 -3.9375 2.78125 -3.804688 2.53125 -3.546875 C 2.289062 -3.296875 2.171875 -2.992188 2.171875 -2.640625 C 2.171875 -2.273438 2.289062 -1.960938 2.53125 -1.703125 C 2.78125 -1.453125 3.078125 -1.328125 3.421875 -1.328125 C 3.585938 -1.328125 3.742188 -1.347656 3.890625 -1.390625 C 4.035156 -1.429688 4.140625 -1.472656 4.203125 -1.515625 L 4.296875 -1.578125 L 4.921875 -0.3125 C 4.867188 -0.28125 4.800781 -0.238281 4.71875 -0.1875 C 4.632812 -0.132812 4.4375 -0.0664062 4.125 0.015625 C 3.820312 0.109375 3.5 0.15625 3.15625 0.15625 C 2.375 0.15625 1.691406 -0.113281 1.109375 -0.65625 C 0.523438 -1.207031 0.234375 -1.863281 0.234375 -2.625 C 0.234375 -3.382812 0.523438 -4.039062 1.109375 -4.59375 C 1.691406 -5.144531 2.375 -5.421875 3.15625 -5.421875 C 3.5 -5.421875 3.816406 -5.378906 4.109375 -5.296875 C 4.410156 -5.210938 4.625 -5.128906 4.75 -5.046875 L 4.921875 -4.921875 L 4.296875 -3.6875 C 4.078125 -3.851562 3.785156 -3.9375 3.421875 -3.9375 Z M 3.421875 -3.9375 "/></g></g><g style="fill:#ffffff;fill-opacity:1;"><g transform="translate(207.535579, 214.909029)"><path style="stroke:none" d="M 5.9375 -2.375 L 2.125 -2.375 C 2.125 -2.007812 2.242188 -1.738281 2.484375 -1.5625 C 2.722656 -1.382812 2.984375 -1.296875 3.265625 -1.296875 C 3.554688 -1.296875 3.785156 -1.332031 3.953125 -1.40625 C 4.128906 -1.488281 4.328125 -1.644531 4.546875 -1.875 L 5.859375 -1.21875 C 5.316406 -0.300781 4.40625 0.15625 3.125 0.15625 C 2.332031 0.15625 1.648438 -0.113281 1.078125 -0.65625 C 0.515625 -1.207031 0.234375 -1.863281 0.234375 -2.625 C 0.234375 -3.394531 0.515625 -4.050781 1.078125 -4.59375 C 1.648438 -5.144531 2.332031 -5.421875 3.125 -5.421875 C 3.96875 -5.421875 4.648438 -5.175781 5.171875 -4.6875 C 5.691406 -4.207031 5.953125 -3.519531 5.953125 -2.625 C 5.953125 -2.5 5.945312 -2.414062 5.9375 -2.375 Z M 2.171875 -3.390625 L 4.171875 -3.390625 C 4.128906 -3.660156 4.019531 -3.867188 3.84375 -4.015625 C 3.675781 -4.160156 3.457031 -4.234375 3.1875 -4.234375 C 2.882812 -4.234375 2.644531 -4.15625 2.46875 -4 C 2.289062 -3.84375 2.191406 -3.640625 2.171875 -3.390625 Z M 2.171875 -3.390625 "/></g></g><g style="fill:#ffffff;fill-opacity:1;"><g transform="translate(213.725338, 214.909029)"><path style="stroke:none" d=""/></g></g><g style="fill:#ffffff;fill-opacity:1;"><g transform="translate(216.527664, 214.909029)"><path style="stroke:none" d="M 4.921875 -8.46875 L 8.328125 0 L 6.265625 0 L 5.640625 -1.6875 L 2.40625 -1.6875 L 1.78125 0 L -0.28125 0 L 3.125 -8.46875 Z M 4.984375 -3.390625 L 4.03125 -5.84375 L 4.015625 -5.84375 L 3.0625 -3.390625 Z M 4.984375 -3.390625 "/></g></g><g style="fill:#ffffff;fill-opacity:1;"><g transform="translate(224.575383, 214.909029)"><path style="stroke:none" d="M 2.90625 -5.421875 C 3.207031 -5.421875 3.503906 -5.382812 3.796875 -5.3125 C 4.085938 -5.25 4.304688 -5.179688 4.453125 -5.109375 L 4.671875 -5.015625 L 4.078125 -3.8125 C 3.660156 -4.03125 3.269531 -4.140625 2.90625 -4.140625 C 2.695312 -4.140625 2.550781 -4.117188 2.46875 -4.078125 C 2.382812 -4.035156 2.34375 -3.953125 2.34375 -3.828125 C 2.34375 -3.796875 2.34375 -3.765625 2.34375 -3.734375 C 2.351562 -3.710938 2.367188 -3.691406 2.390625 -3.671875 C 2.410156 -3.648438 2.425781 -3.628906 2.4375 -3.609375 C 2.457031 -3.585938 2.488281 -3.566406 2.53125 -3.546875 C 2.570312 -3.523438 2.601562 -3.507812 2.625 -3.5 C 2.65625 -3.488281 2.695312 -3.472656 2.75 -3.453125 C 2.800781 -3.429688 2.84375 -3.414062 2.875 -3.40625 C 2.90625 -3.394531 2.953125 -3.378906 3.015625 -3.359375 C 3.078125 -3.347656 3.125 -3.335938 3.15625 -3.328125 C 3.375 -3.265625 3.5625 -3.195312 3.71875 -3.125 C 3.875 -3.050781 4.035156 -2.945312 4.203125 -2.8125 C 4.378906 -2.6875 4.515625 -2.519531 4.609375 -2.3125 C 4.710938 -2.113281 4.765625 -1.890625 4.765625 -1.640625 C 4.765625 -0.441406 3.929688 0.15625 2.265625 0.15625 C 1.890625 0.15625 1.53125 0.0976562 1.1875 -0.015625 C 0.851562 -0.128906 0.613281 -0.25 0.46875 -0.375 L 0.234375 -0.546875 L 0.96875 -1.796875 C 1.03125 -1.742188 1.101562 -1.6875 1.1875 -1.625 C 1.28125 -1.5625 1.441406 -1.472656 1.671875 -1.359375 C 1.898438 -1.242188 2.101562 -1.1875 2.28125 -1.1875 C 2.65625 -1.1875 2.84375 -1.316406 2.84375 -1.578125 C 2.84375 -1.691406 2.796875 -1.78125 2.703125 -1.84375 C 2.609375 -1.90625 2.445312 -1.976562 2.21875 -2.0625 C 1.988281 -2.144531 1.804688 -2.222656 1.671875 -2.296875 C 1.347656 -2.460938 1.085938 -2.648438 0.890625 -2.859375 C 0.703125 -3.078125 0.609375 -3.363281 0.609375 -3.71875 C 0.609375 -4.257812 0.8125 -4.675781 1.21875 -4.96875 C 1.632812 -5.269531 2.195312 -5.421875 2.90625 -5.421875 Z M 2.90625 -5.421875 "/></g></g><g style="fill:#ffffff;fill-opacity:1;"><g transform="translate(229.625742, 214.909029)"><path style="stroke:none" d="M 2.90625 -5.421875 C 3.207031 -5.421875 3.503906 -5.382812 3.796875 -5.3125 C 4.085938 -5.25 4.304688 -5.179688 4.453125 -5.109375 L 4.671875 -5.015625 L 4.078125 -3.8125 C 3.660156 -4.03125 3.269531 -4.140625 2.90625 -4.140625 C 2.695312 -4.140625 2.550781 -4.117188 2.46875 -4.078125 C 2.382812 -4.035156 2.34375 -3.953125 2.34375 -3.828125 C 2.34375 -3.796875 2.34375 -3.765625 2.34375 -3.734375 C 2.351562 -3.710938 2.367188 -3.691406 2.390625 -3.671875 C 2.410156 -3.648438 2.425781 -3.628906 2.4375 -3.609375 C 2.457031 -3.585938 2.488281 -3.566406 2.53125 -3.546875 C 2.570312 -3.523438 2.601562 -3.507812 2.625 -3.5 C 2.65625 -3.488281 2.695312 -3.472656 2.75 -3.453125 C 2.800781 -3.429688 2.84375 -3.414062 2.875 -3.40625 C 2.90625 -3.394531 2.953125 -3.378906 3.015625 -3.359375 C 3.078125 -3.347656 3.125 -3.335938 3.15625 -3.328125 C 3.375 -3.265625 3.5625 -3.195312 3.71875 -3.125 C 3.875 -3.050781 4.035156 -2.945312 4.203125 -2.8125 C 4.378906 -2.6875 4.515625 -2.519531 4.609375 -2.3125 C 4.710938 -2.113281 4.765625 -1.890625 4.765625 -1.640625 C 4.765625 -0.441406 3.929688 0.15625 2.265625 0.15625 C 1.890625 0.15625 1.53125 0.0976562 1.1875 -0.015625 C 0.851562 -0.128906 0.613281 -0.25 0.46875 -0.375 L 0.234375 -0.546875 L 0.96875 -1.796875 C 1.03125 -1.742188 1.101562 -1.6875 1.1875 -1.625 C 1.28125 -1.5625 1.441406 -1.472656 1.671875 -1.359375 C 1.898438 -1.242188 2.101562 -1.1875 2.28125 -1.1875 C 2.65625 -1.1875 2.84375 -1.316406 2.84375 -1.578125 C 2.84375 -1.691406 2.796875 -1.78125 2.703125 -1.84375 C 2.609375 -1.90625 2.445312 -1.976562 2.21875 -2.0625 C 1.988281 -2.144531 1.804688 -2.222656 1.671875 -2.296875 C 1.347656 -2.460938 1.085938 -2.648438 0.890625 -2.859375 C 0.703125 -3.078125 0.609375 -3.363281 0.609375 -3.71875 C 0.609375 -4.257812 0.8125 -4.675781 1.21875 -4.96875 C 1.632812 -5.269531 2.195312 -5.421875 2.90625 -5.421875 Z M 2.90625 -5.421875 "/></g></g><g style="fill:#ffffff;fill-opacity:1;"><g transform="translate(234.676088, 214.909029)"><path style="stroke:none" d="M 0.78125 -8.203125 C 1 -8.410156 1.253906 -8.515625 1.546875 -8.515625 C 1.835938 -8.515625 2.085938 -8.410156 2.296875 -8.203125 C 2.515625 -7.992188 2.625 -7.738281 2.625 -7.4375 C 2.625 -7.144531 2.515625 -6.890625 2.296875 -6.671875 C 2.085938 -6.460938 1.835938 -6.359375 1.546875 -6.359375 C 1.253906 -6.359375 1 -6.460938 0.78125 -6.671875 C 0.570312 -6.890625 0.46875 -7.144531 0.46875 -7.4375 C 0.46875 -7.738281 0.570312 -7.992188 0.78125 -8.203125 Z M 0.609375 -5.265625 L 0.609375 0 L 2.4375 0 L 2.4375 -5.265625 Z M 0.609375 -5.265625 "/></g></g><g style="fill:#ffffff;fill-opacity:1;"><g transform="translate(237.776108, 214.909029)"><path style="stroke:none" d="M 2.90625 -5.421875 C 3.207031 -5.421875 3.503906 -5.382812 3.796875 -5.3125 C 4.085938 -5.25 4.304688 -5.179688 4.453125 -5.109375 L 4.671875 -5.015625 L 4.078125 -3.8125 C 3.660156 -4.03125 3.269531 -4.140625 2.90625 -4.140625 C 2.695312 -4.140625 2.550781 -4.117188 2.46875 -4.078125 C 2.382812 -4.035156 2.34375 -3.953125 2.34375 -3.828125 C 2.34375 -3.796875 2.34375 -3.765625 2.34375 -3.734375 C 2.351562 -3.710938 2.367188 -3.691406 2.390625 -3.671875 C 2.410156 -3.648438 2.425781 -3.628906 2.4375 -3.609375 C 2.457031 -3.585938 2.488281 -3.566406 2.53125 -3.546875 C 2.570312 -3.523438 2.601562 -3.507812 2.625 -3.5 C 2.65625 -3.488281 2.695312 -3.472656 2.75 -3.453125 C 2.800781 -3.429688 2.84375 -3.414062 2.875 -3.40625 C 2.90625 -3.394531 2.953125 -3.378906 3.015625 -3.359375 C 3.078125 -3.347656 3.125 -3.335938 3.15625 -3.328125 C 3.375 -3.265625 3.5625 -3.195312 3.71875 -3.125 C 3.875 -3.050781 4.035156 -2.945312 4.203125 -2.8125 C 4.378906 -2.6875 4.515625 -2.519531 4.609375 -2.3125 C 4.710938 -2.113281 4.765625 -1.890625 4.765625 -1.640625 C 4.765625 -0.441406 3.929688 0.15625 2.265625 0.15625 C 1.890625 0.15625 1.53125 0.0976562 1.1875 -0.015625 C 0.851562 -0.128906 0.613281 -0.25 0.46875 -0.375 L 0.234375 -0.546875 L 0.96875 -1.796875 C 1.03125 -1.742188 1.101562 -1.6875 1.1875 -1.625 C 1.28125 -1.5625 1.441406 -1.472656 1.671875 -1.359375 C 1.898438 -1.242188 2.101562 -1.1875 2.28125 -1.1875 C 2.65625 -1.1875 2.84375 -1.316406 2.84375 -1.578125 C 2.84375 -1.691406 2.796875 -1.78125 2.703125 -1.84375 C 2.609375 -1.90625 2.445312 -1.976562 2.21875 -2.0625 C 1.988281 -2.144531 1.804688 -2.222656 1.671875 -2.296875 C 1.347656 -2.460938 1.085938 -2.648438 0.890625 -2.859375 C 0.703125 -3.078125 0.609375 -3.363281 0.609375 -3.71875 C 0.609375 -4.257812 0.8125 -4.675781 1.21875 -4.96875 C 1.632812 -5.269531 2.195312 -5.421875 2.90625 -5.421875 Z M 2.90625 -5.421875 "/></g></g><g style="fill:#ffffff;fill-opacity:1;"><g transform="translate(242.734064, 214.909029)"><path style="stroke:none" d="M 0.921875 -5.265625 L 0.921875 -7.234375 L 2.734375 -7.234375 L 2.734375 -5.265625 L 3.84375 -5.265625 L 3.84375 -3.875 L 2.734375 -3.875 L 2.734375 -2.203125 C 2.734375 -1.722656 2.875 -1.484375 3.15625 -1.484375 C 3.21875 -1.484375 3.285156 -1.492188 3.359375 -1.515625 C 3.441406 -1.546875 3.503906 -1.570312 3.546875 -1.59375 L 3.609375 -1.640625 L 4.0625 -0.171875 C 3.664062 0.046875 3.21875 0.15625 2.71875 0.15625 C 2.375 0.15625 2.078125 0.0976562 1.828125 -0.015625 C 1.585938 -0.140625 1.40625 -0.300781 1.28125 -0.5 C 1.15625 -0.707031 1.0625 -0.921875 1 -1.140625 C 0.945312 -1.367188 0.921875 -1.609375 0.921875 -1.859375 L 0.921875 -3.875 L 0.171875 -3.875 L 0.171875 -5.265625 Z M 0.921875 -5.265625 "/></g></g><g style="fill:#ffffff;fill-opacity:1;"><g transform="translate(246.768192, 214.909029)"><path style="stroke:none" d="M 0.96875 -0.640625 C 0.476562 -1.179688 0.234375 -1.84375 0.234375 -2.625 C 0.234375 -3.40625 0.476562 -4.066406 0.96875 -4.609375 C 1.46875 -5.148438 2.097656 -5.421875 2.859375 -5.421875 C 3.554688 -5.421875 4.128906 -5.203125 4.578125 -4.765625 L 4.578125 -5.265625 L 6.390625 -5.265625 L 6.390625 0 L 4.59375 0 L 4.59375 -0.59375 L 4.578125 -0.59375 C 4.128906 -0.09375 3.554688 0.15625 2.859375 0.15625 C 2.097656 0.15625 1.46875 -0.109375 0.96875 -0.640625 Z M 2.515625 -3.515625 C 2.285156 -3.285156 2.171875 -2.988281 2.171875 -2.625 C 2.171875 -2.257812 2.28125 -1.960938 2.5 -1.734375 C 2.726562 -1.503906 3.023438 -1.390625 3.390625 -1.390625 C 3.753906 -1.390625 4.050781 -1.503906 4.28125 -1.734375 C 4.507812 -1.972656 4.625 -2.269531 4.625 -2.625 C 4.625 -2.988281 4.503906 -3.285156 4.265625 -3.515625 C 4.023438 -3.753906 3.734375 -3.875 3.390625 -3.875 C 3.046875 -3.875 2.753906 -3.753906 2.515625 -3.515625 Z M 2.515625 -3.515625 "/></g></g><g style="fill:#ffffff;fill-opacity:1;"><g transform="translate(253.779145, 214.909029)"><path style="stroke:none" d="M 0.609375 0 L 0.609375 -5.265625 L 2.4375 -5.265625 L 2.4375 -4.71875 L 2.453125 -4.71875 C 2.921875 -5.1875 3.425781 -5.421875 3.96875 -5.421875 C 4.226562 -5.421875 4.484375 -5.382812 4.734375 -5.3125 C 4.992188 -5.25 5.238281 -5.144531 5.46875 -5 C 5.707031 -4.851562 5.898438 -4.648438 6.046875 -4.390625 C 6.191406 -4.128906 6.265625 -3.820312 6.265625 -3.46875 L 6.265625 0 L 4.453125 0 L 4.453125 -2.984375 C 4.453125 -3.253906 4.363281 -3.488281 4.1875 -3.6875 C 4.019531 -3.894531 3.796875 -4 3.515625 -4 C 3.234375 -4 2.984375 -3.890625 2.765625 -3.671875 C 2.546875 -3.460938 2.4375 -3.234375 2.4375 -2.984375 L 2.4375 0 Z M 0.609375 0 "/></g></g><g style="fill:#ffffff;fill-opacity:1;"><g transform="translate(260.502684, 214.909029)"><path style="stroke:none" d="M 0.921875 -5.265625 L 0.921875 -7.234375 L 2.734375 -7.234375 L 2.734375 -5.265625 L 3.84375 -5.265625 L 3.84375 -3.875 L 2.734375 -3.875 L 2.734375 -2.203125 C 2.734375 -1.722656 2.875 -1.484375 3.15625 -1.484375 C 3.21875 -1.484375 3.285156 -1.492188 3.359375 -1.515625 C 3.441406 -1.546875 3.503906 -1.570312 3.546875 -1.59375 L 3.609375 -1.640625 L 4.0625 -0.171875 C 3.664062 0.046875 3.21875 0.15625 2.71875 0.15625 C 2.375 0.15625 2.078125 0.0976562 1.828125 -0.015625 C 1.585938 -0.140625 1.40625 -0.300781 1.28125 -0.5 C 1.15625 -0.707031 1.0625 -0.921875 1 -1.140625 C 0.945312 -1.367188 0.921875 -1.609375 0.921875 -1.859375 L 0.921875 -3.875 L 0.171875 -3.875 L 0.171875 -5.265625 Z M 0.921875 -5.265625 "/></g></g><g style="fill:#ffffff;fill-opacity:1;"><g transform="translate(264.557337, 214.909029)"><path style="stroke:none" d="M 1.78125 -2.203125 C 2.113281 -2.203125 2.394531 -2.085938 2.625 -1.859375 C 2.851562 -1.628906 2.96875 -1.347656 2.96875 -1.015625 C 2.96875 -0.00390625 2.390625 0.976562 1.234375 1.9375 L 0.71875 1.5 C 0.769531 1.457031 0.828125 1.394531 0.890625 1.3125 C 0.960938 1.226562 1.066406 1.0625 1.203125 0.8125 C 1.347656 0.5625 1.445312 0.3125 1.5 0.0625 C 1.238281 0 1.023438 -0.125 0.859375 -0.3125 C 0.691406 -0.507812 0.609375 -0.742188 0.609375 -1.015625 C 0.609375 -1.347656 0.722656 -1.628906 0.953125 -1.859375 C 1.179688 -2.085938 1.457031 -2.203125 1.78125 -2.203125 Z M 1.78125 -2.203125 "/></g></g><g style="fill:#ffffff;fill-opacity:1;"><g transform="translate(69.183768, 229.153052)"><path style="stroke:none" d=""/></g></g><g style="fill:#ffffff;fill-opacity:1;"><g transform="translate(71.986857, 229.153052)"><path style="stroke:none" d="M 7.734375 -8.46875 L 3.53125 -1.6875 L 7.453125 -1.6875 L 7.453125 0 L 0.171875 0 L 4.359375 -6.78125 L 0.765625 -6.78125 L 0.765625 -8.46875 Z M 7.734375 -8.46875 "/></g></g><g style="fill:#ffffff;fill-opacity:1;"><g transform="translate(79.880599, 229.153052)"><path style="stroke:none" d="M 5.9375 -2.375 L 2.125 -2.375 C 2.125 -2.007812 2.242188 -1.738281 2.484375 -1.5625 C 2.722656 -1.382812 2.984375 -1.296875 3.265625 -1.296875 C 3.554688 -1.296875 3.785156 -1.332031 3.953125 -1.40625 C 4.128906 -1.488281 4.328125 -1.644531 4.546875 -1.875 L 5.859375 -1.21875 C 5.316406 -0.300781 4.40625 0.15625 3.125 0.15625 C 2.332031 0.15625 1.648438 -0.113281 1.078125 -0.65625 C 0.515625 -1.207031 0.234375 -1.863281 0.234375 -2.625 C 0.234375 -3.394531 0.515625 -4.050781 1.078125 -4.59375 C 1.648438 -5.144531 2.332031 -5.421875 3.125 -5.421875 C 3.96875 -5.421875 4.648438 -5.175781 5.171875 -4.6875 C 5.691406 -4.207031 5.953125 -3.519531 5.953125 -2.625 C 5.953125 -2.5 5.945312 -2.414062 5.9375 -2.375 Z M 2.171875 -3.390625 L 4.171875 -3.390625 C 4.128906 -3.660156 4.019531 -3.867188 3.84375 -4.015625 C 3.675781 -4.160156 3.457031 -4.234375 3.1875 -4.234375 C 2.882812 -4.234375 2.644531 -4.15625 2.46875 -4 C 2.289062 -3.84375 2.191406 -3.640625 2.171875 -3.390625 Z M 2.171875 -3.390625 "/></g></g><g style="fill:#ffffff;fill-opacity:1;"><g transform="translate(86.049827, 229.153052)"><path style="stroke:none" d="M 0.609375 0 L 0.609375 -5.265625 L 2.4375 -5.265625 L 2.4375 -4.5 L 2.453125 -4.5 C 2.460938 -4.53125 2.484375 -4.566406 2.515625 -4.609375 C 2.546875 -4.648438 2.613281 -4.722656 2.71875 -4.828125 C 2.820312 -4.929688 2.929688 -5.019531 3.046875 -5.09375 C 3.160156 -5.175781 3.3125 -5.25 3.5 -5.3125 C 3.6875 -5.382812 3.875 -5.421875 4.0625 -5.421875 C 4.257812 -5.421875 4.453125 -5.390625 4.640625 -5.328125 C 4.835938 -5.273438 4.984375 -5.222656 5.078125 -5.171875 L 5.21875 -5.09375 L 4.453125 -3.546875 C 4.222656 -3.742188 3.910156 -3.84375 3.515625 -3.84375 C 3.296875 -3.84375 3.101562 -3.789062 2.9375 -3.6875 C 2.78125 -3.59375 2.671875 -3.476562 2.609375 -3.34375 C 2.546875 -3.207031 2.5 -3.09375 2.46875 -3 C 2.445312 -2.90625 2.4375 -2.828125 2.4375 -2.765625 L 2.4375 0 Z M 0.609375 0 "/></g></g><g style="fill:#ffffff;fill-opacity:1;"><g transform="translate(91.100177, 229.153052)"><path style="stroke:none" d="M 1.109375 -0.625 C 0.523438 -1.144531 0.234375 -1.8125 0.234375 -2.625 C 0.234375 -3.4375 0.535156 -4.101562 1.140625 -4.625 C 1.753906 -5.15625 2.507812 -5.421875 3.40625 -5.421875 C 4.289062 -5.421875 5.035156 -5.15625 5.640625 -4.625 C 6.242188 -4.101562 6.546875 -3.4375 6.546875 -2.625 C 6.546875 -1.820312 6.25 -1.15625 5.65625 -0.625 C 5.070312 -0.101562 4.320312 0.15625 3.40625 0.15625 C 2.457031 0.15625 1.691406 -0.101562 1.109375 -0.625 Z M 2.515625 -3.515625 C 2.285156 -3.285156 2.171875 -2.988281 2.171875 -2.625 C 2.171875 -2.257812 2.28125 -1.960938 2.5 -1.734375 C 2.726562 -1.503906 3.023438 -1.390625 3.390625 -1.390625 C 3.753906 -1.390625 4.050781 -1.503906 4.28125 -1.734375 C 4.507812 -1.972656 4.625 -2.269531 4.625 -2.625 C 4.625 -2.988281 4.503906 -3.285156 4.265625 -3.515625 C 4.023438 -3.753906 3.734375 -3.875 3.390625 -3.875 C 3.046875 -3.875 2.753906 -3.753906 2.515625 -3.515625 Z M 2.515625 -3.515625 "/></g></g><g style="fill:#ffffff;fill-opacity:1;"><g transform="translate(97.885304, 229.153052)"><path style="stroke:none" d=""/></g></g><g style="fill:#ffffff;fill-opacity:1;"><g transform="translate(100.482325, 229.153052)"><path style="stroke:none" d="M 3.734375 -8.625 C 4.191406 -8.625 4.640625 -8.554688 5.078125 -8.421875 C 5.515625 -8.285156 5.84375 -8.15625 6.0625 -8.03125 L 6.359375 -7.828125 L 5.578125 -6.28125 C 5.515625 -6.320312 5.425781 -6.375 5.3125 -6.4375 C 5.207031 -6.507812 5.003906 -6.597656 4.703125 -6.703125 C 4.410156 -6.816406 4.132812 -6.875 3.875 -6.875 C 3.550781 -6.875 3.300781 -6.800781 3.125 -6.65625 C 2.945312 -6.519531 2.859375 -6.335938 2.859375 -6.109375 C 2.859375 -5.992188 2.898438 -5.882812 2.984375 -5.78125 C 3.066406 -5.6875 3.207031 -5.582031 3.40625 -5.46875 C 3.601562 -5.351562 3.773438 -5.257812 3.921875 -5.1875 C 4.078125 -5.125 4.3125 -5.023438 4.625 -4.890625 C 5.175781 -4.648438 5.644531 -4.332031 6.03125 -3.9375 C 6.414062 -3.539062 6.609375 -3.085938 6.609375 -2.578125 C 6.609375 -2.085938 6.519531 -1.660156 6.34375 -1.296875 C 6.175781 -0.941406 5.9375 -0.660156 5.625 -0.453125 C 5.320312 -0.242188 4.984375 -0.09375 4.609375 0 C 4.242188 0.101562 3.847656 0.15625 3.421875 0.15625 C 3.046875 0.15625 2.679688 0.113281 2.328125 0.03125 C 1.972656 -0.0390625 1.675781 -0.128906 1.4375 -0.234375 C 1.195312 -0.347656 0.976562 -0.457031 0.78125 -0.5625 C 0.59375 -0.675781 0.457031 -0.773438 0.375 -0.859375 L 0.234375 -0.96875 L 1.203125 -2.59375 C 1.285156 -2.519531 1.394531 -2.429688 1.53125 -2.328125 C 1.675781 -2.222656 1.929688 -2.078125 2.296875 -1.890625 C 2.671875 -1.710938 3 -1.625 3.28125 -1.625 C 4.09375 -1.625 4.5 -1.90625 4.5 -2.46875 C 4.5 -2.582031 4.46875 -2.6875 4.40625 -2.78125 C 4.351562 -2.882812 4.25 -2.984375 4.09375 -3.078125 C 3.945312 -3.179688 3.816406 -3.257812 3.703125 -3.3125 C 3.597656 -3.375 3.414062 -3.460938 3.15625 -3.578125 C 2.894531 -3.703125 2.707031 -3.796875 2.59375 -3.859375 C 2.070312 -4.109375 1.671875 -4.421875 1.390625 -4.796875 C 1.109375 -5.179688 0.96875 -5.59375 0.96875 -6.03125 C 0.96875 -6.789062 1.25 -7.410156 1.8125 -7.890625 C 2.375 -8.378906 3.015625 -8.625 3.734375 -8.625 Z M 3.734375 -8.625 "/></g></g><g style="fill:#ffffff;fill-opacity:1;"><g transform="translate(107.380366, 229.153052)"><path style="stroke:none" d="M 6.03125 -4.609375 C 6.53125 -4.078125 6.78125 -3.421875 6.78125 -2.640625 C 6.78125 -1.859375 6.53125 -1.195312 6.03125 -0.65625 C 5.539062 -0.113281 4.914062 0.15625 4.15625 0.15625 C 3.457031 0.15625 2.882812 -0.0625 2.4375 -0.5 L 2.4375 2.671875 L 0.609375 2.671875 L 0.609375 -5.265625 L 2.40625 -5.265625 L 2.40625 -4.671875 L 2.4375 -4.671875 C 2.882812 -5.171875 3.457031 -5.421875 4.15625 -5.421875 C 4.914062 -5.421875 5.539062 -5.148438 6.03125 -4.609375 Z M 4.484375 -1.734375 C 4.722656 -1.972656 4.84375 -2.273438 4.84375 -2.640625 C 4.84375 -3.003906 4.726562 -3.300781 4.5 -3.53125 C 4.28125 -3.757812 3.984375 -3.875 3.609375 -3.875 C 3.253906 -3.875 2.960938 -3.753906 2.734375 -3.515625 C 2.503906 -3.285156 2.390625 -2.992188 2.390625 -2.640625 C 2.390625 -2.273438 2.503906 -1.972656 2.734375 -1.734375 C 2.972656 -1.503906 3.265625 -1.390625 3.609375 -1.390625 C 3.960938 -1.390625 4.253906 -1.503906 4.484375 -1.734375 Z M 4.484375 -1.734375 "/></g></g><g style="fill:#ffffff;fill-opacity:1;"><g transform="translate(114.391322, 229.153052)"><path style="stroke:none" d="M 0.609375 0 L 0.609375 -5.265625 L 2.4375 -5.265625 L 2.4375 -4.5 L 2.453125 -4.5 C 2.460938 -4.53125 2.484375 -4.566406 2.515625 -4.609375 C 2.546875 -4.648438 2.613281 -4.722656 2.71875 -4.828125 C 2.820312 -4.929688 2.929688 -5.019531 3.046875 -5.09375 C 3.160156 -5.175781 3.3125 -5.25 3.5 -5.3125 C 3.6875 -5.382812 3.875 -5.421875 4.0625 -5.421875 C 4.257812 -5.421875 4.453125 -5.390625 4.640625 -5.328125 C 4.835938 -5.273438 4.984375 -5.222656 5.078125 -5.171875 L 5.21875 -5.09375 L 4.453125 -3.546875 C 4.222656 -3.742188 3.910156 -3.84375 3.515625 -3.84375 C 3.296875 -3.84375 3.101562 -3.789062 2.9375 -3.6875 C 2.78125 -3.59375 2.671875 -3.476562 2.609375 -3.34375 C 2.546875 -3.207031 2.5 -3.09375 2.46875 -3 C 2.445312 -2.90625 2.4375 -2.828125 2.4375 -2.765625 L 2.4375 0 Z M 0.609375 0 "/></g></g><g style="fill:#ffffff;fill-opacity:1;"><g transform="translate(119.441672, 229.153052)"><path style="stroke:none" d="M 5.9375 -2.375 L 2.125 -2.375 C 2.125 -2.007812 2.242188 -1.738281 2.484375 -1.5625 C 2.722656 -1.382812 2.984375 -1.296875 3.265625 -1.296875 C 3.554688 -1.296875 3.785156 -1.332031 3.953125 -1.40625 C 4.128906 -1.488281 4.328125 -1.644531 4.546875 -1.875 L 5.859375 -1.21875 C 5.316406 -0.300781 4.40625 0.15625 3.125 0.15625 C 2.332031 0.15625 1.648438 -0.113281 1.078125 -0.65625 C 0.515625 -1.207031 0.234375 -1.863281 0.234375 -2.625 C 0.234375 -3.394531 0.515625 -4.050781 1.078125 -4.59375 C 1.648438 -5.144531 2.332031 -5.421875 3.125 -5.421875 C 3.96875 -5.421875 4.648438 -5.175781 5.171875 -4.6875 C 5.691406 -4.207031 5.953125 -3.519531 5.953125 -2.625 C 5.953125 -2.5 5.945312 -2.414062 5.9375 -2.375 Z M 2.171875 -3.390625 L 4.171875 -3.390625 C 4.128906 -3.660156 4.019531 -3.867188 3.84375 -4.015625 C 3.675781 -4.160156 3.457031 -4.234375 3.1875 -4.234375 C 2.882812 -4.234375 2.644531 -4.15625 2.46875 -4 C 2.289062 -3.84375 2.191406 -3.640625 2.171875 -3.390625 Z M 2.171875 -3.390625 "/></g></g><g style="fill:#ffffff;fill-opacity:1;"><g transform="translate(125.580108, 229.153052)"><path style="stroke:none" d="M 0.96875 -0.640625 C 0.476562 -1.179688 0.234375 -1.84375 0.234375 -2.625 C 0.234375 -3.40625 0.476562 -4.066406 0.96875 -4.609375 C 1.46875 -5.148438 2.097656 -5.421875 2.859375 -5.421875 C 3.554688 -5.421875 4.128906 -5.203125 4.578125 -4.765625 L 4.578125 -5.265625 L 6.390625 -5.265625 L 6.390625 0 L 4.59375 0 L 4.59375 -0.59375 L 4.578125 -0.59375 C 4.128906 -0.09375 3.554688 0.15625 2.859375 0.15625 C 2.097656 0.15625 1.46875 -0.109375 0.96875 -0.640625 Z M 2.515625 -3.515625 C 2.285156 -3.285156 2.171875 -2.988281 2.171875 -2.625 C 2.171875 -2.257812 2.28125 -1.960938 2.5 -1.734375 C 2.726562 -1.503906 3.023438 -1.390625 3.390625 -1.390625 C 3.753906 -1.390625 4.050781 -1.503906 4.28125 -1.734375 C 4.507812 -1.972656 4.625 -2.269531 4.625 -2.625 C 4.625 -2.988281 4.503906 -3.285156 4.265625 -3.515625 C 4.023438 -3.753906 3.734375 -3.875 3.390625 -3.875 C 3.046875 -3.875 2.753906 -3.753906 2.515625 -3.515625 Z M 2.515625 -3.515625 "/></g></g><g style="fill:#ffffff;fill-opacity:1;"><g transform="translate(132.591061, 229.153052)"><path style="stroke:none" d="M 0.96875 -0.640625 C 0.476562 -1.179688 0.234375 -1.84375 0.234375 -2.625 C 0.234375 -3.40625 0.476562 -4.066406 0.96875 -4.609375 C 1.46875 -5.148438 2.097656 -5.421875 2.859375 -5.421875 C 3.554688 -5.421875 4.128906 -5.203125 4.578125 -4.765625 L 4.578125 -8.828125 L 6.390625 -8.828125 L 6.390625 0 L 4.59375 0 L 4.59375 -0.59375 L 4.578125 -0.59375 C 4.128906 -0.09375 3.554688 0.15625 2.859375 0.15625 C 2.097656 0.15625 1.46875 -0.109375 0.96875 -0.640625 Z M 2.515625 -3.515625 C 2.285156 -3.285156 2.171875 -2.988281 2.171875 -2.625 C 2.171875 -2.257812 2.28125 -1.960938 2.5 -1.734375 C 2.726562 -1.503906 3.023438 -1.390625 3.390625 -1.390625 C 3.753906 -1.390625 4.050781 -1.503906 4.28125 -1.734375 C 4.507812 -1.972656 4.625 -2.269531 4.625 -2.625 C 4.625 -2.988281 4.503906 -3.285156 4.265625 -3.515625 C 4.023438 -3.753906 3.734375 -3.875 3.390625 -3.875 C 3.046875 -3.875 2.753906 -3.753906 2.515625 -3.515625 Z M 2.515625 -3.515625 "/></g></g><g style="fill:#ffffff;fill-opacity:1;"><g transform="translate(139.602014, 229.153052)"><path style="stroke:none" d="M 2.90625 -5.421875 C 3.207031 -5.421875 3.503906 -5.382812 3.796875 -5.3125 C 4.085938 -5.25 4.304688 -5.179688 4.453125 -5.109375 L 4.671875 -5.015625 L 4.078125 -3.8125 C 3.660156 -4.03125 3.269531 -4.140625 2.90625 -4.140625 C 2.695312 -4.140625 2.550781 -4.117188 2.46875 -4.078125 C 2.382812 -4.035156 2.34375 -3.953125 2.34375 -3.828125 C 2.34375 -3.796875 2.34375 -3.765625 2.34375 -3.734375 C 2.351562 -3.710938 2.367188 -3.691406 2.390625 -3.671875 C 2.410156 -3.648438 2.425781 -3.628906 2.4375 -3.609375 C 2.457031 -3.585938 2.488281 -3.566406 2.53125 -3.546875 C 2.570312 -3.523438 2.601562 -3.507812 2.625 -3.5 C 2.65625 -3.488281 2.695312 -3.472656 2.75 -3.453125 C 2.800781 -3.429688 2.84375 -3.414062 2.875 -3.40625 C 2.90625 -3.394531 2.953125 -3.378906 3.015625 -3.359375 C 3.078125 -3.347656 3.125 -3.335938 3.15625 -3.328125 C 3.375 -3.265625 3.5625 -3.195312 3.71875 -3.125 C 3.875 -3.050781 4.035156 -2.945312 4.203125 -2.8125 C 4.378906 -2.6875 4.515625 -2.519531 4.609375 -2.3125 C 4.710938 -2.113281 4.765625 -1.890625 4.765625 -1.640625 C 4.765625 -0.441406 3.929688 0.15625 2.265625 0.15625 C 1.890625 0.15625 1.53125 0.0976562 1.1875 -0.015625 C 0.851562 -0.128906 0.613281 -0.25 0.46875 -0.375 L 0.234375 -0.546875 L 0.96875 -1.796875 C 1.03125 -1.742188 1.101562 -1.6875 1.1875 -1.625 C 1.28125 -1.5625 1.441406 -1.472656 1.671875 -1.359375 C 1.898438 -1.242188 2.101562 -1.1875 2.28125 -1.1875 C 2.65625 -1.1875 2.84375 -1.316406 2.84375 -1.578125 C 2.84375 -1.691406 2.796875 -1.78125 2.703125 -1.84375 C 2.609375 -1.90625 2.445312 -1.976562 2.21875 -2.0625 C 1.988281 -2.144531 1.804688 -2.222656 1.671875 -2.296875 C 1.347656 -2.460938 1.085938 -2.648438 0.890625 -2.859375 C 0.703125 -3.078125 0.609375 -3.363281 0.609375 -3.71875 C 0.609375 -4.257812 0.8125 -4.675781 1.21875 -4.96875 C 1.632812 -5.269531 2.195312 -5.421875 2.90625 -5.421875 Z M 2.90625 -5.421875 "/></g></g><g style="fill:#ffffff;fill-opacity:1;"><g transform="translate(144.652372, 229.153052)"><path style="stroke:none" d="M 0.609375 0 L 0.609375 -8.828125 L 2.4375 -8.828125 L 2.4375 -4.71875 L 2.453125 -4.71875 C 2.921875 -5.1875 3.425781 -5.421875 3.96875 -5.421875 C 4.226562 -5.421875 4.484375 -5.382812 4.734375 -5.3125 C 4.992188 -5.25 5.238281 -5.144531 5.46875 -5 C 5.707031 -4.851562 5.898438 -4.648438 6.046875 -4.390625 C 6.191406 -4.128906 6.265625 -3.820312 6.265625 -3.46875 L 6.265625 0 L 4.453125 0 L 4.453125 -2.984375 C 4.453125 -3.253906 4.363281 -3.488281 4.1875 -3.6875 C 4.019531 -3.894531 3.796875 -4 3.515625 -4 C 3.234375 -4 2.984375 -3.890625 2.765625 -3.671875 C 2.546875 -3.460938 2.4375 -3.234375 2.4375 -2.984375 L 2.4375 0 Z M 0.609375 0 "/></g></g><g style="fill:#ffffff;fill-opacity:1;"><g transform="translate(151.437497, 229.153052)"><path style="stroke:none" d="M 5.9375 -2.375 L 2.125 -2.375 C 2.125 -2.007812 2.242188 -1.738281 2.484375 -1.5625 C 2.722656 -1.382812 2.984375 -1.296875 3.265625 -1.296875 C 3.554688 -1.296875 3.785156 -1.332031 3.953125 -1.40625 C 4.128906 -1.488281 4.328125 -1.644531 4.546875 -1.875 L 5.859375 -1.21875 C 5.316406 -0.300781 4.40625 0.15625 3.125 0.15625 C 2.332031 0.15625 1.648438 -0.113281 1.078125 -0.65625 C 0.515625 -1.207031 0.234375 -1.863281 0.234375 -2.625 C 0.234375 -3.394531 0.515625 -4.050781 1.078125 -4.59375 C 1.648438 -5.144531 2.332031 -5.421875 3.125 -5.421875 C 3.96875 -5.421875 4.648438 -5.175781 5.171875 -4.6875 C 5.691406 -4.207031 5.953125 -3.519531 5.953125 -2.625 C 5.953125 -2.5 5.945312 -2.414062 5.9375 -2.375 Z M 2.171875 -3.390625 L 4.171875 -3.390625 C 4.128906 -3.660156 4.019531 -3.867188 3.84375 -4.015625 C 3.675781 -4.160156 3.457031 -4.234375 3.1875 -4.234375 C 2.882812 -4.234375 2.644531 -4.15625 2.46875 -4 C 2.289062 -3.84375 2.191406 -3.640625 2.171875 -3.390625 Z M 2.171875 -3.390625 "/></g></g><g style="fill:#ffffff;fill-opacity:1;"><g transform="translate(157.627256, 229.153052)"><path style="stroke:none" d="M 5.9375 -2.375 L 2.125 -2.375 C 2.125 -2.007812 2.242188 -1.738281 2.484375 -1.5625 C 2.722656 -1.382812 2.984375 -1.296875 3.265625 -1.296875 C 3.554688 -1.296875 3.785156 -1.332031 3.953125 -1.40625 C 4.128906 -1.488281 4.328125 -1.644531 4.546875 -1.875 L 5.859375 -1.21875 C 5.316406 -0.300781 4.40625 0.15625 3.125 0.15625 C 2.332031 0.15625 1.648438 -0.113281 1.078125 -0.65625 C 0.515625 -1.207031 0.234375 -1.863281 0.234375 -2.625 C 0.234375 -3.394531 0.515625 -4.050781 1.078125 -4.59375 C 1.648438 -5.144531 2.332031 -5.421875 3.125 -5.421875 C 3.96875 -5.421875 4.648438 -5.175781 5.171875 -4.6875 C 5.691406 -4.207031 5.953125 -3.519531 5.953125 -2.625 C 5.953125 -2.5 5.945312 -2.414062 5.9375 -2.375 Z M 2.171875 -3.390625 L 4.171875 -3.390625 C 4.128906 -3.660156 4.019531 -3.867188 3.84375 -4.015625 C 3.675781 -4.160156 3.457031 -4.234375 3.1875 -4.234375 C 2.882812 -4.234375 2.644531 -4.15625 2.46875 -4 C 2.289062 -3.84375 2.191406 -3.640625 2.171875 -3.390625 Z M 2.171875 -3.390625 "/></g></g><g style="fill:#ffffff;fill-opacity:1;"><g transform="translate(163.765686, 229.153052)"><path style="stroke:none" d="M 0.921875 -5.265625 L 0.921875 -7.234375 L 2.734375 -7.234375 L 2.734375 -5.265625 L 3.84375 -5.265625 L 3.84375 -3.875 L 2.734375 -3.875 L 2.734375 -2.203125 C 2.734375 -1.722656 2.875 -1.484375 3.15625 -1.484375 C 3.21875 -1.484375 3.285156 -1.492188 3.359375 -1.515625 C 3.441406 -1.546875 3.503906 -1.570312 3.546875 -1.59375 L 3.609375 -1.640625 L 4.0625 -0.171875 C 3.664062 0.046875 3.21875 0.15625 2.71875 0.15625 C 2.375 0.15625 2.078125 0.0976562 1.828125 -0.015625 C 1.585938 -0.140625 1.40625 -0.300781 1.28125 -0.5 C 1.15625 -0.707031 1.0625 -0.921875 1 -1.140625 C 0.945312 -1.367188 0.921875 -1.609375 0.921875 -1.859375 L 0.921875 -3.875 L 0.171875 -3.875 L 0.171875 -5.265625 Z M 0.921875 -5.265625 "/></g></g><g style="fill:#ffffff;fill-opacity:1;"><g transform="translate(167.820339, 229.153052)"><path style="stroke:none" d="M 2.90625 -5.421875 C 3.207031 -5.421875 3.503906 -5.382812 3.796875 -5.3125 C 4.085938 -5.25 4.304688 -5.179688 4.453125 -5.109375 L 4.671875 -5.015625 L 4.078125 -3.8125 C 3.660156 -4.03125 3.269531 -4.140625 2.90625 -4.140625 C 2.695312 -4.140625 2.550781 -4.117188 2.46875 -4.078125 C 2.382812 -4.035156 2.34375 -3.953125 2.34375 -3.828125 C 2.34375 -3.796875 2.34375 -3.765625 2.34375 -3.734375 C 2.351562 -3.710938 2.367188 -3.691406 2.390625 -3.671875 C 2.410156 -3.648438 2.425781 -3.628906 2.4375 -3.609375 C 2.457031 -3.585938 2.488281 -3.566406 2.53125 -3.546875 C 2.570312 -3.523438 2.601562 -3.507812 2.625 -3.5 C 2.65625 -3.488281 2.695312 -3.472656 2.75 -3.453125 C 2.800781 -3.429688 2.84375 -3.414062 2.875 -3.40625 C 2.90625 -3.394531 2.953125 -3.378906 3.015625 -3.359375 C 3.078125 -3.347656 3.125 -3.335938 3.15625 -3.328125 C 3.375 -3.265625 3.5625 -3.195312 3.71875 -3.125 C 3.875 -3.050781 4.035156 -2.945312 4.203125 -2.8125 C 4.378906 -2.6875 4.515625 -2.519531 4.609375 -2.3125 C 4.710938 -2.113281 4.765625 -1.890625 4.765625 -1.640625 C 4.765625 -0.441406 3.929688 0.15625 2.265625 0.15625 C 1.890625 0.15625 1.53125 0.0976562 1.1875 -0.015625 C 0.851562 -0.128906 0.613281 -0.25 0.46875 -0.375 L 0.234375 -0.546875 L 0.96875 -1.796875 C 1.03125 -1.742188 1.101562 -1.6875 1.1875 -1.625 C 1.28125 -1.5625 1.441406 -1.472656 1.671875 -1.359375 C 1.898438 -1.242188 2.101562 -1.1875 2.28125 -1.1875 C 2.65625 -1.1875 2.84375 -1.316406 2.84375 -1.578125 C 2.84375 -1.691406 2.796875 -1.78125 2.703125 -1.84375 C 2.609375 -1.90625 2.445312 -1.976562 2.21875 -2.0625 C 1.988281 -2.144531 1.804688 -2.222656 1.671875 -2.296875 C 1.347656 -2.460938 1.085938 -2.648438 0.890625 -2.859375 C 0.703125 -3.078125 0.609375 -3.363281 0.609375 -3.71875 C 0.609375 -4.257812 0.8125 -4.675781 1.21875 -4.96875 C 1.632812 -5.269531 2.195312 -5.421875 2.90625 -5.421875 Z M 2.90625 -5.421875 "/></g></g><g style="fill:#ffffff;fill-opacity:1;"><g transform="translate(172.870697, 229.153052)"><path style="stroke:none" d="M 0 -3.75 L 11.09375 -3.75 L 11.09375 -2.1875 L 0 -2.1875 Z M 0 -3.75 "/></g></g><g style="fill:#ffffff;fill-opacity:1;"><g transform="translate(183.956839, 229.153052)"><path style="stroke:none" d="M 4.921875 -8.46875 L 8.328125 0 L 6.265625 0 L 5.640625 -1.6875 L 2.40625 -1.6875 L 1.78125 0 L -0.28125 0 L 3.125 -8.46875 Z M 4.984375 -3.390625 L 4.03125 -5.84375 L 4.015625 -5.84375 L 3.0625 -3.390625 Z M 4.984375 -3.390625 "/></g></g><g style="fill:#ffffff;fill-opacity:1;"><g transform="translate(192.004547, 229.153052)"><path style="stroke:none" d="M 0.609375 0 L 0.609375 -8.828125 L 2.4375 -8.828125 L 2.4375 0 Z M 0.609375 0 "/></g></g><g style="fill:#ffffff;fill-opacity:1;"><g transform="translate(195.053237, 229.153052)"><path style="stroke:none" d="M 0.609375 0 L 0.609375 -8.828125 L 2.4375 -8.828125 L 2.4375 0 Z M 0.609375 0 "/></g></g><g style="fill:#ffffff;fill-opacity:1;"><g transform="translate(198.101928, 229.153052)"><path style="stroke:none" d=""/></g></g><g style="fill:#ffffff;fill-opacity:1;"><g transform="translate(199.980377, 229.153052)"><path style="stroke:none" d="M -0.3125 -8.46875 L 2.015625 -8.46875 L 3.78125 -5.765625 L 5.546875 -8.46875 L 7.859375 -8.46875 L 4.75 -3.796875 L 4.75 0 L 2.8125 0 L 2.8125 -3.796875 Z M -0.3125 -8.46875 "/></g></g><g style="fill:#ffffff;fill-opacity:1;"><g transform="translate(206.590967, 229.153052)"><path style="stroke:none" d="M 1.109375 -0.625 C 0.523438 -1.144531 0.234375 -1.8125 0.234375 -2.625 C 0.234375 -3.4375 0.535156 -4.101562 1.140625 -4.625 C 1.753906 -5.15625 2.507812 -5.421875 3.40625 -5.421875 C 4.289062 -5.421875 5.035156 -5.15625 5.640625 -4.625 C 6.242188 -4.101562 6.546875 -3.4375 6.546875 -2.625 C 6.546875 -1.820312 6.25 -1.15625 5.65625 -0.625 C 5.070312 -0.101562 4.320312 0.15625 3.40625 0.15625 C 2.457031 0.15625 1.691406 -0.101562 1.109375 -0.625 Z M 2.515625 -3.515625 C 2.285156 -3.285156 2.171875 -2.988281 2.171875 -2.625 C 2.171875 -2.257812 2.28125 -1.960938 2.5 -1.734375 C 2.726562 -1.503906 3.023438 -1.390625 3.390625 -1.390625 C 3.753906 -1.390625 4.050781 -1.503906 4.28125 -1.734375 C 4.507812 -1.972656 4.625 -2.269531 4.625 -2.625 C 4.625 -2.988281 4.503906 -3.285156 4.265625 -3.515625 C 4.023438 -3.753906 3.734375 -3.875 3.390625 -3.875 C 3.046875 -3.875 2.753906 -3.753906 2.515625 -3.515625 Z M 2.515625 -3.515625 "/></g></g><g style="fill:#ffffff;fill-opacity:1;"><g transform="translate(213.376091, 229.153052)"><path style="stroke:none" d="M 2.328125 -5.265625 L 2.328125 -2.765625 C 2.328125 -2.242188 2.40625 -1.875 2.5625 -1.65625 C 2.71875 -1.4375 2.984375 -1.328125 3.359375 -1.328125 C 3.742188 -1.328125 4.015625 -1.4375 4.171875 -1.65625 C 4.328125 -1.875 4.40625 -2.242188 4.40625 -2.765625 L 4.40625 -5.265625 L 6.21875 -5.265625 L 6.21875 -2.3125 C 6.21875 -1.4375 5.988281 -0.804688 5.53125 -0.421875 C 5.082031 -0.0351562 4.359375 0.15625 3.359375 0.15625 C 2.367188 0.15625 1.644531 -0.0351562 1.1875 -0.421875 C 0.738281 -0.804688 0.515625 -1.4375 0.515625 -2.3125 L 0.515625 -5.265625 Z M 2.328125 -5.265625 "/></g></g><g style="fill:#ffffff;fill-opacity:1;"><g transform="translate(220.109898, 229.153052)"><path style="stroke:none" d="M 0.609375 0 L 0.609375 -5.265625 L 2.4375 -5.265625 L 2.4375 -4.5 L 2.453125 -4.5 C 2.460938 -4.53125 2.484375 -4.566406 2.515625 -4.609375 C 2.546875 -4.648438 2.613281 -4.722656 2.71875 -4.828125 C 2.820312 -4.929688 2.929688 -5.019531 3.046875 -5.09375 C 3.160156 -5.175781 3.3125 -5.25 3.5 -5.3125 C 3.6875 -5.382812 3.875 -5.421875 4.0625 -5.421875 C 4.257812 -5.421875 4.453125 -5.390625 4.640625 -5.328125 C 4.835938 -5.273438 4.984375 -5.222656 5.078125 -5.171875 L 5.21875 -5.09375 L 4.453125 -3.546875 C 4.222656 -3.742188 3.910156 -3.84375 3.515625 -3.84375 C 3.296875 -3.84375 3.101562 -3.789062 2.9375 -3.6875 C 2.78125 -3.59375 2.671875 -3.476562 2.609375 -3.34375 C 2.546875 -3.207031 2.5 -3.09375 2.46875 -3 C 2.445312 -2.90625 2.4375 -2.828125 2.4375 -2.765625 L 2.4375 0 Z M 0.609375 0 "/></g></g><g style="fill:#ffffff;fill-opacity:1;"><g transform="translate(225.22183, 229.153052)"><path style="stroke:none" d=""/></g></g><g style="fill:#ffffff;fill-opacity:1;"><g transform="translate(228.024167, 229.153052)"><path style="stroke:none" d="M 4.921875 -8.46875 L 8.328125 0 L 6.265625 0 L 5.640625 -1.6875 L 2.40625 -1.6875 L 1.78125 0 L -0.28125 0 L 3.125 -8.46875 Z M 4.984375 -3.390625 L 4.03125 -5.84375 L 4.015625 -5.84375 L 3.0625 -3.390625 Z M 4.984375 -3.390625 "/></g></g><g style="fill:#ffffff;fill-opacity:1;"><g transform="translate(236.071886, 229.153052)"><path style="stroke:none" d="M 0.609375 0 L 0.609375 -5.265625 L 2.4375 -5.265625 L 2.4375 -4.71875 L 2.453125 -4.71875 C 2.921875 -5.1875 3.425781 -5.421875 3.96875 -5.421875 C 4.226562 -5.421875 4.484375 -5.382812 4.734375 -5.3125 C 4.992188 -5.25 5.238281 -5.144531 5.46875 -5 C 5.707031 -4.851562 5.898438 -4.648438 6.046875 -4.390625 C 6.191406 -4.128906 6.265625 -3.820312 6.265625 -3.46875 L 6.265625 0 L 4.453125 0 L 4.453125 -2.984375 C 4.453125 -3.253906 4.363281 -3.488281 4.1875 -3.6875 C 4.019531 -3.894531 3.796875 -4 3.515625 -4 C 3.234375 -4 2.984375 -3.890625 2.765625 -3.671875 C 2.546875 -3.460938 2.4375 -3.234375 2.4375 -2.984375 L 2.4375 0 Z M 0.609375 0 "/></g></g><g style="fill:#ffffff;fill-opacity:1;"><g transform="translate(242.805681, 229.153052)"><path style="stroke:none" d="M 2.90625 -5.421875 C 3.207031 -5.421875 3.503906 -5.382812 3.796875 -5.3125 C 4.085938 -5.25 4.304688 -5.179688 4.453125 -5.109375 L 4.671875 -5.015625 L 4.078125 -3.8125 C 3.660156 -4.03125 3.269531 -4.140625 2.90625 -4.140625 C 2.695312 -4.140625 2.550781 -4.117188 2.46875 -4.078125 C 2.382812 -4.035156 2.34375 -3.953125 2.34375 -3.828125 C 2.34375 -3.796875 2.34375 -3.765625 2.34375 -3.734375 C 2.351562 -3.710938 2.367188 -3.691406 2.390625 -3.671875 C 2.410156 -3.648438 2.425781 -3.628906 2.4375 -3.609375 C 2.457031 -3.585938 2.488281 -3.566406 2.53125 -3.546875 C 2.570312 -3.523438 2.601562 -3.507812 2.625 -3.5 C 2.65625 -3.488281 2.695312 -3.472656 2.75 -3.453125 C 2.800781 -3.429688 2.84375 -3.414062 2.875 -3.40625 C 2.90625 -3.394531 2.953125 -3.378906 3.015625 -3.359375 C 3.078125 -3.347656 3.125 -3.335938 3.15625 -3.328125 C 3.375 -3.265625 3.5625 -3.195312 3.71875 -3.125 C 3.875 -3.050781 4.035156 -2.945312 4.203125 -2.8125 C 4.378906 -2.6875 4.515625 -2.519531 4.609375 -2.3125 C 4.710938 -2.113281 4.765625 -1.890625 4.765625 -1.640625 C 4.765625 -0.441406 3.929688 0.15625 2.265625 0.15625 C 1.890625 0.15625 1.53125 0.0976562 1.1875 -0.015625 C 0.851562 -0.128906 0.613281 -0.25 0.46875 -0.375 L 0.234375 -0.546875 L 0.96875 -1.796875 C 1.03125 -1.742188 1.101562 -1.6875 1.1875 -1.625 C 1.28125 -1.5625 1.441406 -1.472656 1.671875 -1.359375 C 1.898438 -1.242188 2.101562 -1.1875 2.28125 -1.1875 C 2.65625 -1.1875 2.84375 -1.316406 2.84375 -1.578125 C 2.84375 -1.691406 2.796875 -1.78125 2.703125 -1.84375 C 2.609375 -1.90625 2.445312 -1.976562 2.21875 -2.0625 C 1.988281 -2.144531 1.804688 -2.222656 1.671875 -2.296875 C 1.347656 -2.460938 1.085938 -2.648438 0.890625 -2.859375 C 0.703125 -3.078125 0.609375 -3.363281 0.609375 -3.71875 C 0.609375 -4.257812 0.8125 -4.675781 1.21875 -4.96875 C 1.632812 -5.269531 2.195312 -5.421875 2.90625 -5.421875 Z M 2.90625 -5.421875 "/></g></g><g style="fill:#ffffff;fill-opacity:1;"><g transform="translate(247.85604, 229.153052)"><path style="stroke:none" d="M 3.84375 0 L 2.625 0 L -0.203125 -5.265625 L 1.890625 -5.265625 L 3.171875 -2.421875 L 4.4375 -5.265625 L 5.6875 -5.265625 L 6.953125 -2.421875 L 8.234375 -5.265625 L 10.328125 -5.265625 L 7.5 0 L 6.265625 0 L 5.0625 -2.71875 Z M 3.84375 0 "/></g></g><g style="fill:#ffffff;fill-opacity:1;"><g transform="translate(257.946476, 229.153052)"><path style="stroke:none" d="M 5.9375 -2.375 L 2.125 -2.375 C 2.125 -2.007812 2.242188 -1.738281 2.484375 -1.5625 C 2.722656 -1.382812 2.984375 -1.296875 3.265625 -1.296875 C 3.554688 -1.296875 3.785156 -1.332031 3.953125 -1.40625 C 4.128906 -1.488281 4.328125 -1.644531 4.546875 -1.875 L 5.859375 -1.21875 C 5.316406 -0.300781 4.40625 0.15625 3.125 0.15625 C 2.332031 0.15625 1.648438 -0.113281 1.078125 -0.65625 C 0.515625 -1.207031 0.234375 -1.863281 0.234375 -2.625 C 0.234375 -3.394531 0.515625 -4.050781 1.078125 -4.59375 C 1.648438 -5.144531 2.332031 -5.421875 3.125 -5.421875 C 3.96875 -5.421875 4.648438 -5.175781 5.171875 -4.6875 C 5.691406 -4.207031 5.953125 -3.519531 5.953125 -2.625 C 5.953125 -2.5 5.945312 -2.414062 5.9375 -2.375 Z M 2.171875 -3.390625 L 4.171875 -3.390625 C 4.128906 -3.660156 4.019531 -3.867188 3.84375 -4.015625 C 3.675781 -4.160156 3.457031 -4.234375 3.1875 -4.234375 C 2.882812 -4.234375 2.644531 -4.15625 2.46875 -4 C 2.289062 -3.84375 2.191406 -3.640625 2.171875 -3.390625 Z M 2.171875 -3.390625 "/></g></g><g style="fill:#ffffff;fill-opacity:1;"><g transform="translate(264.115699, 229.153052)"><path style="stroke:none" d="M 0.609375 0 L 0.609375 -5.265625 L 2.4375 -5.265625 L 2.4375 -4.5 L 2.453125 -4.5 C 2.460938 -4.53125 2.484375 -4.566406 2.515625 -4.609375 C 2.546875 -4.648438 2.613281 -4.722656 2.71875 -4.828125 C 2.820312 -4.929688 2.929688 -5.019531 3.046875 -5.09375 C 3.160156 -5.175781 3.3125 -5.25 3.5 -5.3125 C 3.6875 -5.382812 3.875 -5.421875 4.0625 -5.421875 C 4.257812 -5.421875 4.453125 -5.390625 4.640625 -5.328125 C 4.835938 -5.273438 4.984375 -5.222656 5.078125 -5.171875 L 5.21875 -5.09375 L 4.453125 -3.546875 C 4.222656 -3.742188 3.910156 -3.84375 3.515625 -3.84375 C 3.296875 -3.84375 3.101562 -3.789062 2.9375 -3.6875 C 2.78125 -3.59375 2.671875 -3.476562 2.609375 -3.34375 C 2.546875 -3.207031 2.5 -3.09375 2.46875 -3 C 2.445312 -2.90625 2.4375 -2.828125 2.4375 -2.765625 L 2.4375 0 Z M 0.609375 0 "/></g></g><g style="fill:#ffffff;fill-opacity:1;"><g transform="translate(269.145521, 229.153052)"><path style="stroke:none" d="M 2.90625 -5.421875 C 3.207031 -5.421875 3.503906 -5.382812 3.796875 -5.3125 C 4.085938 -5.25 4.304688 -5.179688 4.453125 -5.109375 L 4.671875 -5.015625 L 4.078125 -3.8125 C 3.660156 -4.03125 3.269531 -4.140625 2.90625 -4.140625 C 2.695312 -4.140625 2.550781 -4.117188 2.46875 -4.078125 C 2.382812 -4.035156 2.34375 -3.953125 2.34375 -3.828125 C 2.34375 -3.796875 2.34375 -3.765625 2.34375 -3.734375 C 2.351562 -3.710938 2.367188 -3.691406 2.390625 -3.671875 C 2.410156 -3.648438 2.425781 -3.628906 2.4375 -3.609375 C 2.457031 -3.585938 2.488281 -3.566406 2.53125 -3.546875 C 2.570312 -3.523438 2.601562 -3.507812 2.625 -3.5 C 2.65625 -3.488281 2.695312 -3.472656 2.75 -3.453125 C 2.800781 -3.429688 2.84375 -3.414062 2.875 -3.40625 C 2.90625 -3.394531 2.953125 -3.378906 3.015625 -3.359375 C 3.078125 -3.347656 3.125 -3.335938 3.15625 -3.328125 C 3.375 -3.265625 3.5625 -3.195312 3.71875 -3.125 C 3.875 -3.050781 4.035156 -2.945312 4.203125 -2.8125 C 4.378906 -2.6875 4.515625 -2.519531 4.609375 -2.3125 C 4.710938 -2.113281 4.765625 -1.890625 4.765625 -1.640625 C 4.765625 -0.441406 3.929688 0.15625 2.265625 0.15625 C 1.890625 0.15625 1.53125 0.0976562 1.1875 -0.015625 C 0.851562 -0.128906 0.613281 -0.25 0.46875 -0.375 L 0.234375 -0.546875 L 0.96875 -1.796875 C 1.03125 -1.742188 1.101562 -1.6875 1.1875 -1.625 C 1.28125 -1.5625 1.441406 -1.472656 1.671875 -1.359375 C 1.898438 -1.242188 2.101562 -1.1875 2.28125 -1.1875 C 2.65625 -1.1875 2.84375 -1.316406 2.84375 -1.578125 C 2.84375 -1.691406 2.796875 -1.78125 2.703125 -1.84375 C 2.609375 -1.90625 2.445312 -1.976562 2.21875 -2.0625 C 1.988281 -2.144531 1.804688 -2.222656 1.671875 -2.296875 C 1.347656 -2.460938 1.085938 -2.648438 0.890625 -2.859375 C 0.703125 -3.078125 0.609375 -3.363281 0.609375 -3.71875 C 0.609375 -4.257812 0.8125 -4.675781 1.21875 -4.96875 C 1.632812 -5.269531 2.195312 -5.421875 2.90625 -5.421875 Z M 2.90625 -5.421875 "/></g></g><g style="fill:#ffffff;fill-opacity:1;"><g transform="translate(274.195879, 229.153052)"><path style="stroke:none" d=""/></g></g><g style="fill:#ffffff;fill-opacity:1;"><g transform="translate(276.998193, 229.153052)"><path style="stroke:none" d="M 2.546875 -3.390625 L 2.546875 0 L 0.609375 0 L 0.609375 -8.46875 L 2.546875 -8.46875 L 2.546875 -5.09375 L 5.28125 -5.09375 L 5.28125 -8.46875 L 7.203125 -8.46875 L 7.203125 0 L 5.28125 0 L 5.28125 -3.390625 Z M 2.546875 -3.390625 "/></g></g><g style="fill:#ffffff;fill-opacity:1;"><g transform="translate(284.820083, 229.153052)"><path style="stroke:none" d="M 5.9375 -2.375 L 2.125 -2.375 C 2.125 -2.007812 2.242188 -1.738281 2.484375 -1.5625 C 2.722656 -1.382812 2.984375 -1.296875 3.265625 -1.296875 C 3.554688 -1.296875 3.785156 -1.332031 3.953125 -1.40625 C 4.128906 -1.488281 4.328125 -1.644531 4.546875 -1.875 L 5.859375 -1.21875 C 5.316406 -0.300781 4.40625 0.15625 3.125 0.15625 C 2.332031 0.15625 1.648438 -0.113281 1.078125 -0.65625 C 0.515625 -1.207031 0.234375 -1.863281 0.234375 -2.625 C 0.234375 -3.394531 0.515625 -4.050781 1.078125 -4.59375 C 1.648438 -5.144531 2.332031 -5.421875 3.125 -5.421875 C 3.96875 -5.421875 4.648438 -5.175781 5.171875 -4.6875 C 5.691406 -4.207031 5.953125 -3.519531 5.953125 -2.625 C 5.953125 -2.5 5.945312 -2.414062 5.9375 -2.375 Z M 2.171875 -3.390625 L 4.171875 -3.390625 C 4.128906 -3.660156 4.019531 -3.867188 3.84375 -4.015625 C 3.675781 -4.160156 3.457031 -4.234375 3.1875 -4.234375 C 2.882812 -4.234375 2.644531 -4.15625 2.46875 -4 C 2.289062 -3.84375 2.191406 -3.640625 2.171875 -3.390625 Z M 2.171875 -3.390625 "/></g></g><g style="fill:#ffffff;fill-opacity:1;"><g transform="translate(290.989318, 229.153052)"><path style="stroke:none" d="M 0.609375 0 L 0.609375 -5.265625 L 2.4375 -5.265625 L 2.4375 -4.5 L 2.453125 -4.5 C 2.460938 -4.53125 2.484375 -4.566406 2.515625 -4.609375 C 2.546875 -4.648438 2.613281 -4.722656 2.71875 -4.828125 C 2.820312 -4.929688 2.929688 -5.019531 3.046875 -5.09375 C 3.160156 -5.175781 3.3125 -5.25 3.5 -5.3125 C 3.6875 -5.382812 3.875 -5.421875 4.0625 -5.421875 C 4.257812 -5.421875 4.453125 -5.390625 4.640625 -5.328125 C 4.835938 -5.273438 4.984375 -5.222656 5.078125 -5.171875 L 5.21875 -5.09375 L 4.453125 -3.546875 C 4.222656 -3.742188 3.910156 -3.84375 3.515625 -3.84375 C 3.296875 -3.84375 3.101562 -3.789062 2.9375 -3.6875 C 2.78125 -3.59375 2.671875 -3.476562 2.609375 -3.34375 C 2.546875 -3.207031 2.5 -3.09375 2.46875 -3 C 2.445312 -2.90625 2.4375 -2.828125 2.4375 -2.765625 L 2.4375 0 Z M 0.609375 0 "/></g></g><g style="fill:#ffffff;fill-opacity:1;"><g transform="translate(296.039676, 229.153052)"><path style="stroke:none" d="M 5.9375 -2.375 L 2.125 -2.375 C 2.125 -2.007812 2.242188 -1.738281 2.484375 -1.5625 C 2.722656 -1.382812 2.984375 -1.296875 3.265625 -1.296875 C 3.554688 -1.296875 3.785156 -1.332031 3.953125 -1.40625 C 4.128906 -1.488281 4.328125 -1.644531 4.546875 -1.875 L 5.859375 -1.21875 C 5.316406 -0.300781 4.40625 0.15625 3.125 0.15625 C 2.332031 0.15625 1.648438 -0.113281 1.078125 -0.65625 C 0.515625 -1.207031 0.234375 -1.863281 0.234375 -2.625 C 0.234375 -3.394531 0.515625 -4.050781 1.078125 -4.59375 C 1.648438 -5.144531 2.332031 -5.421875 3.125 -5.421875 C 3.96875 -5.421875 4.648438 -5.175781 5.171875 -4.6875 C 5.691406 -4.207031 5.953125 -3.519531 5.953125 -2.625 C 5.953125 -2.5 5.945312 -2.414062 5.9375 -2.375 Z M 2.171875 -3.390625 L 4.171875 -3.390625 C 4.128906 -3.660156 4.019531 -3.867188 3.84375 -4.015625 C 3.675781 -4.160156 3.457031 -4.234375 3.1875 -4.234375 C 2.882812 -4.234375 2.644531 -4.15625 2.46875 -4 C 2.289062 -3.84375 2.191406 -3.640625 2.171875 -3.390625 Z M 2.171875 -3.390625 "/></g></g><g style="fill:#ffffff;fill-opacity:1;"><g transform="translate(302.229423, 229.153052)"><path style="stroke:none" d="M 1.78125 -2.203125 C 2.113281 -2.203125 2.394531 -2.085938 2.625 -1.859375 C 2.851562 -1.628906 2.96875 -1.347656 2.96875 -1.015625 C 2.96875 -0.691406 2.851562 -0.414062 2.625 -0.1875 C 2.394531 0.0390625 2.113281 0.15625 1.78125 0.15625 C 1.457031 0.15625 1.179688 0.0390625 0.953125 -0.1875 C 0.722656 -0.414062 0.609375 -0.691406 0.609375 -1.015625 C 0.609375 -1.347656 0.722656 -1.628906 0.953125 -1.859375 C 1.179688 -2.085938 1.457031 -2.203125 1.78125 -2.203125 Z M 1.78125 -2.203125 "/></g></g></g></svg>