<svg xmlns="http://www.w3.org/2000/svg" width="120" height="40" viewBox="0 0 120 40" preserveAspectRatio="xMidYMid meet">
  <defs/>
  <g>
    <!-- NAMI text -->
    <g style="fill:#ff914d;fill-opacity:1;">
      <!-- N -->
      <g transform="translate(5, 28)">
        <path style="stroke:none" d="M 3.2 -5.6 L 3.2 0 L 0.8 0 L 0.8 -10.5 L 1.4 -10.5 L 6.9 -4.5 L 6.9 -10.3 L 9.0 -10.3 L 9.0 0.2 L 8.4 0.2 Z"/>
      </g>
      <!-- A -->
      <g transform="translate(20, 28)">
        <path style="stroke:none" d="M 0.2 0 L 4.6 -10.6 L 4.8 -10.6 L 9.1 0 L 6.8 0 L 6.4 -1.1 L 3.0 -1.1 L 2.6 0 Z M 3.7 -3.0 L 5.6 -3.0 L 4.7 -5.7 Z"/>
      </g>
      <!-- M -->
      <g transform="translate(35, 28)">
        <path style="stroke:none" d="M 5.9 -5.9 L 9.9 -10.4 L 10.6 -10.4 L 10.6 0 L 8.5 0 L 8.5 -5.7 L 5.9 -3.0 L 3.2 -5.7 L 3.2 0 L 1.2 0 L 1.2 -10.4 L 1.8 -10.4 Z"/>
      </g>
      <!-- I -->
      <g transform="translate(52, 28)">
        <path style="stroke:none" d="M 3.2 0 L 1.2 0 L 1.2 -10.3 L 3.2 -10.3 Z"/>
      </g>
    </g>
    
    <!-- Dot after NAMI -->
    <g style="fill:#ff914d;fill-opacity:1;">
      <g transform="translate(62, 28)">
        <circle cx="1.5" cy="-5" r="1.2"/>
      </g>
    </g>
  </g>
</svg>